<?xml version="1.0" encoding="UTF-8"?>
<svg id="Layer_1" xmlns="http://www.w3.org/2000/svg" version="1.1" viewBox="0 0 512 512">
  <!-- Generator: Adobe Illustrator 29.3.1, SVG Export Plug-In . SVG Version: 2.1.0 Build 151)  -->
  <defs>
    <style>
      .st0 {
        fill: #384bff;
      }
    </style>
  </defs>
  <path class="st0" d="M265.44,14.27c4.76,1.47,10.3,1.31,15.3,2.16,64.67,11.02,113.12,67.23,116.88,132.4,1.1,19.09,1.66,49.26.04,68.01-2.14,24.83-24.27,28.86-45.23,27-1.89,7.08-2.44,14.52-4.37,21.6-4.7,17.26-14.31,32.23-25.83,45.61l15.93,31.3c24.69,9.86,51.14,14.46,73.54,29.39,34.29,22.85,59.08,66.23,61.45,107.57.47,8.13.98,13.73-6.6,18.4H45.43c-7.57-4.67-7.07-10.27-6.6-18.4,2.38-41.36,27.17-84.73,61.45-107.57,22.39-14.92,48.85-19.53,73.54-29.39l15.93-31.3c-7.47-9.08-14.67-18.34-19.67-29.11-10.86-.36-20.81-.69-28.85-8.92-8.49-8.69-8.28-19.63-8.14-31.05-11.07-3.77-17.77-13.62-18.77-25.14-1.62-18.75-1.06-48.92.04-68.01C118.41,78.89,174.27,19.07,245.06,15.15l1.5-.87h18.89ZM378.75,146.47c-2.16-15.78-5.81-30.87-12.86-45.21-24.23-49.3-79.51-76.14-133.53-65.78-54.16,10.39-94.01,56.38-99.11,110.99h18.89c.59-40.86,27.97-78.18,67.03-90.19,20.2-6.21,53.46-6.22,73.67,0,39.06,12.01,66.44,49.33,67.03,90.19h18.89ZM340.98,155.91v-15.58c0-15.47-12.92-38.17-24.05-48.65-28.53-26.87-83.92-28.47-115.06-5.48-15.99,11.8-29.2,32.67-29.44,52.71,13.7-16.85,36.71-28.79,58.56-30.19,12.9-.83,12.05,3.23,20.28,9.91,26.41,21.44,55.49,34.01,89.72,37.28ZM210.68,281.49h-18.89c2.97,6.54,8.41,13.08,13.67,17.97,35.14,32.67,89.28,23.97,114.21-16.15,9.95-16.01,12.88-33.97,15.53-52.45,2.66-18.48,3.98-37.32,4.74-55.96-30.99-3.59-60.32-12.87-86.12-30.5-3.81-2.6-19.76-16.61-21.84-16.69-4.84-.17-14.91,2.95-19.66,4.82-10.36,4.07-19.38,11.28-26.67,19.59-1.99,2.27-12.72,16.16-13.26,17.9-.96,3.1-.53,9.3-.41,12.79.32,9.66,1.77,21.39,2.83,31.16,1.77,16.3,4.57,32.51,7.59,48.59l27.65.08c4.48-10.51,13.1-17.76,24.72-18.91,20.04-1.99,46.86-.2,49.46,25.11,3.06,29.79-26.96,33.76-49.46,31.53-10.74-1.07-21.16-8.26-24.09-18.88ZM152.13,165.35h-18.89v51.46c0,2.52,5.52,8.03,8.03,8.03h15.58l-4.72-59.49ZM378.75,165.35h-18.89l-4.72,59.49h15.58c2.51,0,8.03-5.51,8.03-8.03v-51.46ZM159.56,243.85l-7.43-.13c-.72,9.1-.2,18.99,11.34,18.88l-3.91-18.75ZM235.92,262.83c-8.91,1.61-11.24,13.57-2.84,17.5,4.2,1.96,23.53,1.93,27.56-.34,6.43-3.62,6.01-13.13-.61-16.23-3.69-1.72-19.75-1.73-24.11-.94ZM308.41,325.89l-40.11,42,31.62,31.61c8.91-15.03,15.27-31.47,21.07-47.91l-12.57-25.71ZM201.24,328.71l-10.39,23.06c6.23,16.25,12.24,32.78,21.24,47.74l29.73-30.67-40.57-40.13ZM271.11,337.22c-11.28,1.42-22.86,1.63-33.99-.95l18.31,17.89,15.68-16.95ZM239,478.84c-24-36.99-49.82-72.73-63.73-115.21l-1.83-.92c-18.26,6.84-38.15,10.84-55.32,20.27-34.7,19.04-56.23,57.03-60.41,95.86h181.3ZM454.29,478.84c-4.18-38.83-25.71-76.82-60.41-95.86-17.18-9.43-37.06-13.43-55.32-20.27l-1.83.92c-13.88,42.44-39.79,78.24-63.73,115.21h181.3ZM254.71,382.6l-32.72,35.33,34.47,51.47,33.54-51.47-35.29-35.33Z"/>
  <path class="st0" d="M369.21,397.63c0-5.16-4.18-9.34-9.34-9.34s-9.34,4.18-9.34,9.34,4.18,9.34,9.34,9.34,9.34-4.18,9.34-9.34ZM391.75,406.32c-4.36.63-8.41,5.17-8.21,9.65.24,5.61,12.03,14.25,15.96,18.99,4.57,5.52,9.72,18.63,16.64,19.31,5.68.56,10.48-4.38,10.32-9.92-.24-8.32-23.46-36.55-31.42-38.05-1.25-.24-2.06-.17-3.29,0Z"/>
  <path class="st0" d="M391.75,406.32c1.22-.18,2.04-.24,3.29,0,7.96,1.5,31.18,29.73,31.42,38.05.16,5.53-4.64,10.48-10.32,9.92-6.92-.69-12.07-13.8-16.64-19.31-3.93-4.75-15.72-13.38-15.96-18.99-.19-4.48,3.85-9.02,8.21-9.65Z"/>
  <circle class="st0" cx="359.87" cy="397.63" r="9.34"/>
</svg>