<?xml version="1.0" encoding="UTF-8"?>
<svg id="Layer_1" xmlns="http://www.w3.org/2000/svg" version="1.1" viewBox="0 0 384 384">
  <!-- Generator: Adobe Illustrator 29.3.1, SVG Export Plug-In . SVG Version: 2.1.0 Build 151)  -->
  <defs>
    <style>
      .st0 {
        fill: #fff;
      }

      .st1 {
        fill: #384bff;
      }
    </style>
  </defs>
  <path class="st1" d="M209.59,175.92c-.47.62,2.51,4.57,3.13,5.47,10.15,14.68,22.99,28.86,32.66,43.69,3.51,5.38,5.83,9.11,2.4,15.6-1.23,2.33-8.54,9.12-10.88,10.83-4.7,3.45-10.03,4.03-14.97.76l-41.62-55.34c-16.01,8.3-34.06,8.18-48.22-3.78-18.37-15.52-18.78-44.65-.71-60.63,3.52-3.11,32.8-20.78,35.92-21.04,1.39-.11,3.18.71,4.13.38,2.25-.78,19.45-15.88,22.44-18.65,9.87-9.16,20.39-20.7,28.3-31.59,2.34-3.23,10.21-14.36,11.05-17.44s-2.23-7.33-2.59-10.94c-2.04-20.68,23.53-31.6,37.68-16.72l23.63,40.04c3.35.29,6.39-1.73,10.07-1.93,18.81-1.05,31.64,19.56,22.43,35.91-2.09,3.72-5.73,5.65-7.71,9.28l21.98,37.93c8.5,19.86-13.09,39.01-31.59,27.1-3.6-2.32-5.09-5.66-8.24-8.23-30.94-.36-60.82,8.08-89.29,19.32ZM249.04,20.37c-6.77,1.54-10.06,11.3-6.06,16.97l66.58,115.31c7.09,10.29,22.74,4.28,20.21-8.23l-68.65-119.98c-2.76-3.59-7.72-5.07-12.08-4.07ZM241.02,53.9l-1.83.78c-15.82,26.23-38.14,47.84-62.43,66.19l26.57,46.12c10.2-3.39,20.08-7.64,30.39-10.74,19.54-5.87,39.27-9.4,59.71-10.29l-52.41-92.06ZM310.66,89.82c13.7-9.35,2.84-28.98-12.74-23.95l12.74,23.95ZM195.32,175.85l-29.51-52.33c-12.61,9.33-31.5,13.46-36.09,30.52-5.25,19.5,8.95,38.64,29.36,38.39,12.64-.16,24.83-12.07,36.24-16.59ZM201.13,184.23l-11.01,6.28-.45,1.9,39.66,51.56c1.99-2.68,10.36-6.81,9.17-10.45l-37.37-49.29Z"/>
  <path class="st1" d="M184.14,326.36c-8.98,1.85-18.16,3.76-27.33,4.48-11.62.92-23.19.06-34.83-.3l-63.35,44.33c-5.08,3.61-10.21.94-9.16-5.39l12.72-55.38c-36.16-17.56-66.38-53.51-51.72-95.93,9.57-27.69,37.07-47.51,63.44-57.82,5.93-2.32,22.73-8.12,28.41-8.16,4.33-.03,7.03,4.63,4.65,8.28-1.37,2.1-20.05,6.45-24.26,7.92-67.42,23.42-94.65,89.77-24.54,131.61,6.2,3.7,17.74,5.55,15,14.55l-10.28,43.97,56.11-38.58c6.73-.52,14.7,1.22,21.36,1.23,2.12,0,3.95-.79,5.96-.85,13-.36,25.09-1.45,37.8-4.49.08-8.98-2.37-24.27,10.1-25.45,13.26-1.25,28.46,1.02,41.94.02,31.49-23.13,37.7-61.04,11.25-91.32-2.57-2.94-14.15-12.18-14.79-13.65-2.02-4.61.99-9.41,6.21-7.73,2.68.86,12.58,10.2,14.95,12.76,22.59,24.38,28.03,56.74,10.03,85.67-3.17,5.09-7.57,9.25-10.8,14.28h30.32c2.7,0,9.31,7.41,8.61,10.85-1.66,20.17,2.22,43.89,0,63.63-.71,6.29-4.61,10.47-10.84,11.62l-86.1-.02c-4.03.38-10.85-5.75-10.85-9.36v-40.8ZM281.45,300.91h-86.83v65.12h86.83v-65.12Z"/>
  <path class="st1" d="M347.86,170.84c6.18-1.28,11.98,1.78,16.61,5.51,33.13,26.65-10.08,103.18-44.68,110.89-13.11,2.92-37.23-4.18-30.99-21.27,1.32-3.62,8.64-16.27,11.42-18.51,7.62-6.13,14.43-1.1,21.87,1.72,4.6-1.19,21.58-31.1,20.78-36.19-.37-2.38-6.25-4.22-8.2-6.08-3.76-3.58-5-9.05-3.6-13.94.76-2.64,8.41-16.18,10.27-18.17,1.38-1.48,4.62-3.56,6.52-3.95ZM350.07,181.25c-1.11.38-9.24,14.58-9.19,16,1.31,3.73,6.36,4.06,9.1,7.07,1.17,1.28,3.01,4.75,3.28,6.44,1.47,9.22-9.65,28.06-15.06,35.75-5.91,8.4-11.29,16.27-22.71,11.76-2.71-1.07-5.85-4.65-9.02-2.32-.66.49-8.05,13.41-8.2,14.22-.94,5.02,12.61,7.8,16.4,7.47,26.6-2.32,58.61-59.58,49.7-83.97-1.58-4.33-9.34-14.12-14.3-12.42Z"/>
  <path class="st1" d="M207.9,255.44c2.6,2.82,1.09,8.65-3.13,8.83H76.69c-7.23-1.81-5.43-10.11,1.52-10.54l124.31-.02c1.39-.01,4.53.8,5.38,1.72Z"/>
  <path class="st1" d="M73.55,224.37c-4.43-4.2.06-9.01,5.42-9.54,28.02-2.79,60.57,2.09,89.07.02,7.66-.67,10.39,9.54,2.27,10.48-30.02-1.96-63.23,2.56-92.86.02-1.23-.11-2.97-.1-3.89-.97Z"/>
  <path class="st1" d="M314.92,37.21c-4.12,3.38-10.85-.63-8.59-5.96l13.29-22.64c4.72-4.51,10.64-.48,8.63,5.64l-13.34,22.96Z"/>
  <path class="st1" d="M347.15,89.27c4.19-.62,24.1-.77,27.08.96,3.67,2.13,3.03,8.5-1.88,9.27-3.71.58-24.16.65-27.49-.11-5.35-1.23-5-9.04,2.28-10.12Z"/>
  <path class="st1" d="M360.59,39.84c5.8-1.23,9.4,3.7,5.88,8.12-.92,1.16-19.69,12.22-21.6,12.83-6.39,2.02-10.12-3.22-6.19-8.43l21.91-12.52Z"/>
  <g>
    <path class="st0" d="M281.45,300.91v65.12h-86.83v-65.12h86.83ZM222.12,310.76c-1.61.29-3.99,2.33-4.28,4.02.93,11.36-1.32,24.83-.03,35.92.64,5.48,4.72,5.65,9.03,3.76,6.63-2.9,19.95-10.87,26.1-15.06,4.4-3,8.11-6.22,2.56-10.67-4.15-3.33-24.92-15.28-29.9-17.26-1.31-.52-1.9-1-3.49-.71Z"/>
    <path class="st1" d="M222.12,310.76c1.59-.29,2.18.19,3.49.71,4.97,1.98,25.75,13.94,29.9,17.26,5.55,4.45,1.85,7.67-2.56,10.67-6.16,4.2-19.47,12.17-26.1,15.06-4.32,1.89-8.4,1.72-9.03-3.76-1.29-11.09.97-24.56.03-35.92.29-1.69,2.67-3.73,4.28-4.02ZM228.3,325.61v15.72c3.69-2.23,8.2-4.25,11.75-6.59.79-.52,1.91-.79,1.73-2.01l-13.48-7.12Z"/>
  </g>
  <g>
    <path class="st1" d="M59.68,6.91c2.72-.55,11.18-.53,14.07-.19,11.11,1.33,5.12,13.84,12.87,15.58,6.98,1.57,8.21-6.1,15.96-3.98,3.68,1.01,13.5,11.23,14.05,15.19.94,6.8-6.79,8.22-3.77,15.7,2.52,6.26,13.53.9,15.08,11.86.49,3.48.51,13.06-1.12,15.97-3.71,6.64-12.86,2.83-14.38,9.58s5.33,8.32,4.02,15.21c-.8,4.21-10.92,14.2-15.23,14.79-6.5.9-8.71-6.63-15.7-3.77-5.84,2.38-1.83,10.24-8.49,13.96-2.91,1.63-12.47,1.61-15.97,1.12-11.33-1.6-5.19-13.7-12.94-15.49-7.77-1.79-9.84,8.34-18.9,2.42-2.45-1.6-10.54-10.14-11.09-12.86-1.56-7.57,6.72-9.16,3.75-16.48-2.47-6.08-13.6-1.41-15.1-11.09-.43-2.79-.41-10.58-.07-13.44,1.31-10.92,13.9-5.42,15.58-12.87,1.57-6.99-6.1-8.21-3.98-15.96.89-3.24,11.09-13.34,14.41-14.03,7.52-1.55,9.4,6.82,16.48,3.76,5.72-2.47,1.78-13.22,10.46-14.98ZM71.01,17.31l-7.43.23c-2.54,14.19-17.23,19.7-29.16,11.99l-5.05,5.26c8.17,10.79,2.14,26.7-11.42,28.43l-.63,7.78c13.8,2.26,20.21,16.78,12.19,28.51l5.3,5.89c10.78-8.35,26.71-2.28,28.43,11.37l7.78.63c2.49-14.62,16.98-20.03,29.3-12.22l5.05-5.26c-8.59-12.29-1.9-26.21,12.19-29.32l-.36-7.04c-14.28-2.54-19.81-17.16-11.97-29.15l-5.28-5.03c-11.97,7.97-26.5,2.1-28.93-12.09Z"/>
    <path class="st1" d="M99.08,67.29c0,17.56-14.23,31.79-31.79,31.79s-31.79-14.23-31.79-31.79,14.23-31.79,31.79-31.79,31.79,14.23,31.79,31.79ZM88.57,67.26c0-11.77-9.54-21.32-21.32-21.32s-21.32,9.54-21.32,21.32,9.54,21.32,21.32,21.32,21.32-9.54,21.32-21.32Z"/>
  </g>
</svg>