<svg width="53" height="52" viewBox="0 0 53 52" fill="none" xmlns="http://www.w3.org/2000/svg">
<path d="M38.5146 39.3908L29.2751 32.322L30.294 30.9381L39.6513 38.192C45.3445 32.4188 54.8636 38.1179 52.4001 45.9684C51.6026 48.5111 49.237 50.5741 46.6288 51.0696C40.8007 52.1729 36.0384 46.6845 37.8931 41.0238C38.0038 40.6849 38.6253 39.583 38.5146 39.3908ZM51.0875 43.5338C51.0875 40.2336 48.4211 37.557 45.1303 37.557C41.8395 37.557 39.1731 40.2322 39.1731 43.5338C39.1731 46.8354 41.8395 49.5106 45.1303 49.5106C48.4211 49.5106 51.0875 46.8354 51.0875 43.5338Z" fill="#384BFF"/>
<path d="M43.0582 40.228L45.0946 42.2483L47.209 40.228L48.4308 41.4553L46.4186 43.4983L48.4308 45.6197L47.209 46.8455L45.1726 44.8252L43.0582 46.8455L41.8364 45.6197L43.8486 43.5752L41.8364 41.4553L43.0582 40.228Z" fill="#384BFF"/>
<path d="M29.2751 18.8735L38.5189 11.8061C38.5913 11.6808 37.8505 10.1019 37.7597 9.77163C35.1784 0.332343 48.712 -3.9673 52.2085 4.67185C55.4085 12.5778 45.539 19.0073 39.6513 13.0035L30.3749 20.2502L29.2751 18.8749V18.8735ZM51.0889 7.65598C51.0889 4.35579 48.4225 1.67919 45.1317 1.67919C41.8409 1.67919 39.1745 4.35436 39.1745 7.65598C39.1745 10.9576 41.8409 13.6328 45.1317 13.6328C48.4225 13.6328 51.0889 10.9576 51.0889 7.65598Z" fill="#384BFF"/>
<path d="M47.443 4.89388C47.768 4.80846 48.4605 5.79937 48.75 6.00438L44.3793 10.3724C43.3448 10.9718 42.262 8.97569 41.5156 8.46031L42.7374 7.23448L43.9082 8.40478L47.4416 4.89388H47.443Z" fill="#384BFF"/>
<path d="M0.615635 7.68152L26.8015 7.73847C27.1165 7.90362 27.2754 8.20403 27.2598 8.55996L27.2485 36.855L26.9902 37.3434L20.8414 43.454H0.459539C0.144508 43.2903 -0.014426 42.9899 0.00118359 42.6325V8.56138C-0.0186832 8.14138 0.212623 7.79684 0.614216 7.68152H0.615635ZM25.5499 9.36721H1.70973V41.8281H19.5898V36.435C19.5898 36.3097 20.051 35.8485 20.1745 35.8485H25.5499V9.36721ZM24.2727 37.5569H21.2927V40.5468L24.2727 37.5569Z" fill="#384BFF"/>
<path d="M11.6844 13.6611C12.1669 13.5529 14.9553 13.5614 15.4875 13.644C15.8238 13.6966 16.0707 13.9216 16.163 14.2476L16.1885 29.07C16.1814 29.4245 15.9302 29.7676 15.5783 29.8459C15.0958 29.9541 12.3074 29.9456 11.7752 29.863C11.4389 29.8104 11.192 29.5854 11.0998 29.2594L11.0742 14.437C11.0813 14.0825 11.3325 13.7394 11.6844 13.6611ZM14.4814 15.3467H12.7785V28.1603H14.4814V15.3467Z" fill="#384BFF"/>
<path d="M4.87289 18.7867C5.35395 18.6785 8.14523 18.687 8.67596 18.7696C8.98248 18.818 9.20953 19.0059 9.32589 19.2921L9.37556 29.0702C9.36988 29.3877 9.15135 29.7251 8.84625 29.8205C8.47304 29.9373 5.43625 29.9358 4.96229 29.8618C4.65577 29.8134 4.42872 29.6255 4.31236 29.3393L4.2627 19.5612C4.26979 19.2067 4.52096 18.8635 4.87289 18.7852V18.7867ZM7.66985 20.4724H5.96698V28.1605H7.66985V20.4724Z" fill="#384BFF"/>
<path d="M23.847 31.5773H3.4126V33.2857H23.847V31.5773Z" fill="#384BFF"/>
<path d="M18.4956 22.2034C18.9767 22.0952 21.7679 22.1038 22.2987 22.1863C22.8294 22.2689 22.9585 22.6149 23.0011 23.0833C23.1274 24.4657 23.1558 27.7189 22.9983 29.07C22.9628 29.3733 22.8393 29.6609 22.5428 29.7876C22.2121 29.93 19.1924 29.93 18.6829 29.8702C18.1082 29.8032 17.9308 29.51 17.8826 28.9647C17.7563 27.578 17.7279 24.3333 17.8854 22.9779C17.928 22.6106 18.1139 22.2874 18.4956 22.202V22.2034ZM21.2926 23.8891H19.5897V28.1603H21.2926V23.8891Z" fill="#384BFF"/>
</svg>
