<svg xmlns="http://www.w3.org/2000/svg" width="13.918" height="13.894" viewBox="0 0 13.918 13.894">
  <g id="Right_Double_Arrow" data-name="Right Double Arrow" transform="translate(-331.342 -1886.475)">
    <path id="arrow-left-sign-1" d="M26.586,31.316a1.453,1.453,0,0,1,0,.272,1.166,1.166,0,0,1-.243.5L20.28,38.155a.969.969,0,0,1-1.262.013L12.942,32.09a.972.972,0,0,1,1.23-1.475l5.48,5.42,5.46-5.42A.993.993,0,0,1,26.586,31.316Z" transform="translate(300.865 1913.067) rotate(-90)"/>
    <path id="arrow-left-sign" d="M26.586,31.316a1.453,1.453,0,0,1,0,.272,1.166,1.166,0,0,1-.243.5L20.28,38.155a.969.969,0,0,1-1.262.013L12.942,32.09a.972.972,0,0,1,1.23-1.475l5.48,5.42,5.46-5.42A.993.993,0,0,1,26.586,31.316Z" transform="translate(306.865 1913.067) rotate(-90)"/>
  </g>
</svg>
