<?xml version="1.0" encoding="UTF-8"?>
<svg id="Layer_1" xmlns="http://www.w3.org/2000/svg" version="1.1" viewBox="0 0 384 384">
  <!-- Generator: Adobe Illustrator 29.3.1, SVG Export Plug-In . SVG Version: 2.1.0 Build 151)  -->
  <defs>
    <style>
      .st0 {
        fill: #384bff;
      }
    </style>
  </defs>
  <path class="st0" d="M0,55.39c2.99-12.51,12.03-22.15,25.08-23.95h285.17c7.23,3.04,4.55,11.54-2.95,11.25l-280.74-.03c-5.83-.37-15.34,8.51-15.34,13.85v38.55h360.8v-38.55c0-.77-2.99-6.49-3.75-7.48-8.05-10.53-22.94-4.59-33.88-6.54-6.95-1.24-6.32-10-.91-11.03,4.1-.78,19.28-.45,23.96-.04,13.11,1.13,23.58,11.74,25.6,24.55-.19,81.91,1.35,164.12-.77,245.86-7.82,33.06-53.07,18.29-77.27,21.57-7.55-.87-6.63-9.75.06-11.2l54.27-.37c4.71-.53,12.68-9.24,12.68-13.52V106.29H11.23v43.79c0,4.41-9.51,5.77-11.23.37V55.39Z"/>
  <path class="st0" d="M0,171.42c3.74-4.19,8.82-4.51,11.21,1.14v124.24c-.23,5.26,8.17,15.34,13.12,15.34h103.67l-24.52-65.67c-1.65-6.3,2.72-12.04,9.15-12.21,28.98,10.27,57.99,20.61,86.67,31.66,7.77,2.99,26.26,6.58,19.59,18.47l-19.72,20,6.7,7.37,72.93.43c7.56,1.19,5.15,11.19,1.54,11.19h-62.5c2.4,4.01,4.21,6.56,1.91,11.27-1,2.04-15.06,16.28-16.84,16.84s-4.46.58-6.25.17c-5.92-1.35-17.78-17.5-23.36-21.53-1.52,0-17.07,19.07-21.93,20.76-13.36,4.68-14.03-20.8-20.11-27.4l-107.48-.31c-12.46-2.33-20.86-11.7-23.77-23.76v-128ZM206.59,280.71l-90.56-33.69,32.93,90.57c1.14.3,1.24-.3,1.88-.74,4.97-3.42,16.32-18.52,20.54-19.89,2.66-.86,4.21-.36,6.4,1.16,6.8,4.73,13.7,15.38,20.58,20.59.47.36.93,1.48,1.5.77l8.18-8.9c-.24-1.38-17.29-16.79-19.79-19.93-2.93-3.67-4.63-5.43-1.52-9.77,1.67-2.33,20.71-19.03,19.86-20.17Z"/>
  <path class="st0" d="M106.3,206.59l14.69-39.49c5.47-4.43,11.35-1.2,9.49,6.43-4.13,16.96-14,35.36-18.57,52.54-1.23,3.71-5.57,4.97-8.84,3.03-2.74-1.63-12.48-35.82-14.75-41.2l-15.06,39.94c-2.08,2.81-6.62,2.64-8.9.12l-19.11-54.24c-2.87-7.27,6.22-11.85,10.03-5.55,5.21,8.6,8.21,27.33,12.77,37.39.4.88-.36,1.35,1.56,1.05l13.58-39.2c2.77-4.43,8.58-3.14,10.42,1.36l12.7,37.83Z"/>
  <path class="st0" d="M211.08,206.6l13.57-39.21c4.21-4.82,11.26-1.26,10.09,4.8l-19.33,54.82c-2.52,4.29-9.03,3.79-10.44-1.18l-12.59-37.94c-1.06.09-1.18,1.1-1.52,1.84-4.79,10.44-7.74,27.8-13.13,37.02-1.86,3.17-5.63,4.34-8.61,1.99-1.83-1.44-4.17-9.26-5.19-12.02-5.52-14.92-9.91-30.32-15.38-45.27-.79-6.15,7.56-8.5,10.47-3.71l13.53,38.86,14.44-38.7c2.76-4.59,7.81-4.34,10.27.53,5.19,10.28,7.44,25.69,12.32,36.34.34.74.46,1.76,1.52,1.84Z"/>
  <path class="st0" d="M312.15,206.6c1.06-.09,1.18-1.1,1.52-1.84,5.11-11.15,7.67-25.23,12.81-36.6,3.89-6.34,12.3-2.27,10.2,4.95-5.38,13.86-9.65,28.16-14.78,42.11-2.44,6.63-5.71,21.68-14.39,11.36l-13.7-38.7-14.27,39.62c-4.96,4.52-8.21,2.64-10.62-2.75-7.14-15.92-10.73-35.59-17.81-51.81-2.42-7.21,6.78-10.75,10.46-4.47,5,8.55,7.82,26.3,12.37,36.28.34.74.5,1.75,1.52,1.83l14.06-39.47c1.45-2.83,5.52-3.18,7.96-1.62,3.39,2.16,12.25,35.25,14.68,41.09Z"/>
  <circle class="st0" cx="111.53" cy="68.86" r="10.41"/>
  <circle class="st0" cx="79.55" cy="68.85" r="10.37"/>
  <circle class="st0" cx="47.61" cy="68.8" r="10.36"/>
</svg>