<?xml version="1.0" encoding="UTF-8"?>
<svg id="Layer_1" xmlns="http://www.w3.org/2000/svg" version="1.1" viewBox="0 0 384 384">
  <!-- Generator: Adobe Illustrator 29.3.1, SVG Export Plug-In . SVG Version: 2.1.0 Build 151)  -->
  <defs>
    <style>
      .st0 {
        fill: #384bff;
      }
    </style>
  </defs>
  <path class="st0" d="M195.37,0c18.53,4.81,21.35,29.87,2.99,36.68v39.67h25.45v-40.05c0-3.63,7.87-5.78,10.99-2.39.27.29,1.73,2.96,1.73,3.14v39.3h25.45V28.82c0-.89,2.54-4.72,3.36-5.63,5.82-6.43,14.66-2.72,22.35-3.85,3.18-4.47,4.94-8.25,10.2-10.76,18.57-8.87,35.99,12.15,23.98,28.47-8.97,12.19-28.1,9.35-32.93-4.86h-14.22v44.16c20.11-1.91,34.06,12.09,32.19,32.19h44.16v-14.22c-14.29-5.06-17.05-23.66-4.85-32.92,16.26-12.34,37.79,5.95,28.19,24.44-2.61,5.03-6.15,6.59-10.5,9.71-1.06,8.06,2.66,17.3-4.67,23.02-.79.62-4.14,2.68-4.8,2.68h-47.53v25.45h39.3c.18,0,2.85,1.47,3.14,1.73,3.39,3.12,1.24,10.99-2.39,10.99h-40.05v25.45h39.67c6.82-19.81,36.41-14.52,36.73,6.35.33,21.35-29.63,27.27-36.73,7.12h-39.67v25.45h40.05c3.63,0,5.78,7.87,2.39,10.99-.29.27-2.96,1.73-3.14,1.73h-39.3v25.45h47.53c.66,0,4.01,2.06,4.8,2.68,7.33,5.72,3.62,14.96,4.67,23.02,4.35,3.12,7.89,4.69,10.5,9.71,9.61,18.49-11.92,36.79-28.19,24.44-12.2-9.26-9.44-27.85,4.85-32.92v-14.22h-44.16c1.88,20.1-12.07,33.98-32.19,32.19v44.16h14.22c5.06-14.29,23.66-17.05,32.92-4.85,12.34,16.26-5.95,37.79-24.44,28.19-5.03-2.61-6.59-6.15-9.71-10.5-8.06-1.06-17.3,2.66-23.02-4.67-.62-.79-2.68-4.14-2.68-4.8v-47.53h-25.45v39.3c0,.18-1.47,2.85-1.73,3.14-3.12,3.39-10.99,1.24-10.99-2.39v-40.05h-25.45v39.67c20.15,7.1,14.23,37.07-7.12,36.73-20.87-.33-26.16-29.92-6.35-36.73v-39.67h-25.45v40.05c0,3.63-7.87,5.78-10.99,2.39-.27-.29-1.73-2.96-1.73-3.14v-39.3h-25.45v47.53c0,.66-2.06,4.01-2.68,4.8-5.72,7.33-14.96,3.62-23.02,4.67-3.12,4.35-4.69,7.89-9.71,10.5-18.49,9.61-36.79-11.92-24.44-28.19,9.26-12.2,27.85-9.44,32.92,4.85h14.22v-44.16c-20.2,1.75-34.05-12-32.19-32.19h-44.16v14.22c14.22,4.84,17.05,23.97,4.86,32.93-16.32,12.01-37.35-5.41-28.47-23.98,2.51-5.25,6.3-7.02,10.76-10.2,1.13-7.69-2.58-16.53,3.85-22.35.9-.82,4.74-3.36,5.63-3.36h47.53v-25.45h-39.3c-.18,0-2.85-1.47-3.14-1.73-3.39-3.12-1.24-10.99,2.39-10.99h40.05v-25.45h-39.67c-6.8,18.36-31.87,15.53-36.68-2.99v-7.49c4.86-18.56,29.8-21.4,36.68-2.99h39.67v-25.45h-40.05c-3.63,0-5.78-7.87-2.39-10.99.29-.27,2.96-1.73,3.14-1.73h39.3v-25.45H28.82c-.89,0-4.72-2.54-5.63-3.36-6.43-5.82-2.72-14.66-3.85-22.35-4.47-3.18-8.25-4.94-10.76-10.2-8.92-18.66,12.47-36.09,28.45-23.96,12.2,9.26,9.44,27.85-4.85,32.92v14.22h44.16c-1.87-20.19,12.01-34.05,32.19-32.19v-44.16h-14.22c-5.06,14.29-23.66,17.05-32.92,4.85-12.13-15.98,5.3-37.37,23.96-28.45,5.25,2.51,7.02,6.3,10.2,10.76,7.69,1.13,16.53-2.58,22.35,3.85.82.9,3.36,4.74,3.36,5.63v47.53h25.45v-39.3c0-.18,1.47-2.85,1.73-3.14,3.12-3.39,10.99-1.24,10.99,2.39v40.05h25.45v-39.67c-18.4-6.88-15.56-31.82,2.99-36.68h7.49ZM198.01,19.11c0-3.53-2.86-6.39-6.39-6.39s-6.39,2.86-6.39,6.39,2.86,6.39,6.39,6.39,6.39-2.86,6.39-6.39ZM83.08,25.58c0-3.52-2.86-6.38-6.38-6.38s-6.38,2.86-6.38,6.38,2.86,6.38,6.38,6.38,6.38-2.86,6.38-6.38ZM312.93,25.58c0-3.52-2.86-6.38-6.38-6.38s-6.38,2.86-6.38,6.38,2.86,6.38,6.38,6.38,6.38-2.86,6.38-6.38ZM31.96,76.7c0-3.52-2.86-6.38-6.38-6.38s-6.38,2.86-6.38,6.38,2.86,6.38,6.38,6.38,6.38-2.86,6.38-6.38ZM364.05,76.7c0-3.52-2.86-6.38-6.38-6.38s-6.38,2.86-6.38,6.38,2.86,6.38,6.38,6.38,6.38-2.86,6.38-6.38ZM290.16,93.09c-2.99-2.99-7.27-3.54-11.3-4.04H105.14c-11.36.78-15.3,4.72-16.09,16.09v173.72c.87,10.96,5.34,14.6,16.09,15.35,59.97-.81,120.29,1.47,180.05-1.16,6.44-2.22,8.51-7.79,9.01-14.19V105.14c-.35-4.25-.9-8.91-4.04-12.05ZM25.5,191.63c0-3.53-2.86-6.38-6.38-6.38s-6.38,2.86-6.38,6.38,2.86,6.38,6.38,6.38,6.38-2.86,6.38-6.38ZM370.52,191.63c0-3.53-2.86-6.38-6.38-6.38s-6.38,2.86-6.38,6.38,2.86,6.38,6.38,6.38,6.38-2.86,6.38-6.38ZM31.96,306.55c0-3.52-2.86-6.38-6.38-6.38s-6.38,2.86-6.38,6.38,2.86,6.38,6.38,6.38,6.38-2.86,6.38-6.38ZM364.05,306.55c0-3.52-2.86-6.38-6.38-6.38s-6.38,2.86-6.38,6.38,2.86,6.38,6.38,6.38,6.38-2.86,6.38-6.38ZM83.08,357.67c0-3.52-2.86-6.38-6.38-6.38s-6.38,2.86-6.38,6.38,2.86,6.38,6.38,6.38,6.38-2.86,6.38-6.38ZM312.93,357.67c0-3.52-2.86-6.38-6.38-6.38s-6.38,2.86-6.38,6.38,2.86,6.38,6.38,6.38,6.38-2.86,6.38-6.38ZM198.01,364.14c0-3.53-2.86-6.38-6.38-6.38s-6.38,2.86-6.38,6.38,2.86,6.38,6.38,6.38,6.38-2.86,6.38-6.38Z"/>
  <g>
    <path class="st0" d="M165.35,211.16l-23.93.25-7.87,34.05c-3.61,5.7-10.5,4.52-12.29-1.88l22.06-100.63c1.99-10.62,15.51-12.26,19.32-2.07l22.14,99.12c2.36,7-6.03,12.51-10.74,7-3.6-4.21-7.18-34.54-8.7-35.83ZM144.47,198.36h16.84l.83-1.54-9.43-38.13-8.24,39.67Z"/>
    <path class="st0" d="M202.48,146.71c-5.78-1.25-6.79-11.83,2.96-12.76,12.18-1.16,26.83.54,39.21.54,4.39,1.33,5.83,6.57,3.13,10.18-.24.32-2.47,2.05-2.64,2.05h-15.35v89.82h15.35c.17,0,2.4,1.73,2.64,2.05,2.69,3.61,1.26,8.84-3.13,10.18-12.38,0-27.04,1.7-39.21.54-5.32-.51-9.2-4.22-6.69-9.76.31-.68,3.26-3,3.73-3h14.6v-89.82c-4.22-.62-10.71.84-14.6,0Z"/>
  </g>
</svg>