<?xml version="1.0" encoding="UTF-8"?>
<svg id="Layer_1" xmlns="http://www.w3.org/2000/svg" version="1.1" viewBox="0 0 372.36 372.36">
  <!-- Generator: Adobe Illustrator 29.3.1, SVG Export Plug-In . SVG Version: 2.1.0 Build 151)  -->
  <defs>
    <style>
      .st0 {
        fill: #fff;
      }

      .st1 {
        fill: #384bff;
      }
    </style>
  </defs>
  <path class="st1" d="M235.91,26.13l-3.65,11.6c-5.16-1.76-10.46-3.11-15.83-4.13-82.47-15.59-160.79,34.49-181.6,115.11l16.68-9.42,5.82,10.87-35.5,20.28L1.45,134.94l10.16-4.78,11.61,17.83C43.03,54.68,144.9-3.16,235.91,26.13Z"/>
  <path class="st1" d="M368.69,132.82l-6.12,10.77-17.06-10.12c3.62,12.38,6.8,25.17,7.97,38.09,3.56,39.15-8.71,84.64-33.08,115.64-.67.85-3.28,4.47-4.17,4.35l-8.36-7.42c32.59-41.49,42.96-97.39,26.02-147.75l-10.24,16.6c-1.15.67-10.72-5.36-10.72-6.08l21.32-34.28,34.45,20.2Z"/>
  <path class="st0" d="M285.26,311.94h-123.76l-23.23-23.2-26.53,24.26c-7.49,4.75-15.44-9.66-20.77-13.73,4.36-14.53,7.74-26.9,23.7-31.94,13.7-4.32,30.51-4.82,44.61-8.36l26.79,25.36,24.74-24.65,2.18-.72c13.69,3.31,28.86,4.22,42.37,7.78,22.26,5.87,23.53,26.48,29.89,45.21Z"/>
  <path class="st1" d="M119.04,372.15c-7.17-.8-16.25-5.18-21.78-9.78L10.52,275.68c-12.62-15.36-12.24-38.05.39-53.31,8.46-10.21,20.52-19.3,29.38-29.39l43.86,43.98-23.18,23.84c-1.6,1.73-1.8,4.19-1.3,6.37.99,4.34,17.93,17.54,21.26,22.27.68.01,4.03-10.21,4.82-11.85,13.41-27.62,44.74-23.61,70.22-30.28.29-.35.24-2.84-.08-3.41-.3-.53-8.28-5.47-10.02-7.03-9.49-8.49-15.65-19.93-18.52-32.27-10.71-3.89-18.22-10.99-19.24-22.85-1.12-13.01-.84-34.74,0-47.94,3.85-60.53,73.04-94.01,122.93-58.96,46.31,32.53,30.34,86.68,33.19,135.19-1.41,17.9-15.6,19.16-30.5,18.85-2.46,2.25-4.03,4.96-6.54,7.25-1.76,1.6-10.42,7.18-10.74,7.75-.45.8-.11,2.1-.2,3.04,27.88,7.95,58.19,2.18,71.53,33.83,5.7,13.54,9.3,29.54,14.17,43.51h-127.75l8.37,9.43c-16.39,12.16-31.77,36.04-53.37,38.45-2.5.28-7.66.28-10.16,0ZM251.87,159.6v-28.66c0-9.53-8.42-26.7-14.54-34.07-29.34-35.39-85.19-31.39-108.26,8.56-2.92,5.06-8.59,18.54-8.59,24.06v30.11l5.71-2.28.1-7.16h14.88c1.87,0,8.82-2.02,11.08-2.71,13.72-4.19,24.33-13.11,33.93-23.39,9.35,10.37,20.35,19.25,33.93,23.39,2.26.69,9.21,2.71,11.08,2.71h14.88l.1,7.16,5.71,2.28ZM217.03,228.52h-30.12c-1.67-1.2-1.43-10.72-.77-11.65l41.63-.83c9.5-16.07,5.19-35.79,5.64-53.58-9.08-1.32-18.3-3.4-26.8-7.31-7.56-3.48-13.96-8.61-20.43-13.71-13.84,11.94-29.84,19.2-48.17,21.17.5,15.85-2.35,32.97,3.7,47.97,12.13,30.07,51.17,39.64,75.32,17.95ZM126.3,170.48c-8.46,3.48-7.58,16.04,0,20.31v-20.31ZM246.06,190.79c7.7-4.43,8.21-16.37,0-20.31v20.31ZM251.87,201.67l-7.13,2.31-3.76,12.2c2.82.65,10.89-.17,10.89-3.98v-10.52ZM40.26,209.61l-6.57,6.58,27.67,27.61,6.57-6.58-27.67-27.61ZM25.04,224.9c-11.95,10.12-15.82,26.28-7.49,40.12l88.19,88.87c11.26,8.52,27.16,8.25,37.99-.95,1.17-1,4.75-4.04,4.03-5.44l-26.9-26.84c-7,7.35-17.14,6.96-24.7.73-15.57-12.84-29.5-31.62-45-44.98-6.05-7.87-4.79-16.72,1.06-24.22l-27.17-27.29ZM203.96,249.56c-6.9,2.03-14.18,3.33-21.4,2.89-4.47-.28-8.9-2.17-13.43-1.81l17.05,17.04,17.78-18.12ZM285.26,311.94c-6.36-18.73-7.63-39.34-29.89-45.21-13.52-3.56-28.68-4.47-42.37-7.78l-2.18.72-24.74,24.65-26.79-25.36c-14.1,3.54-30.91,4.04-44.61,8.36-15.97,5.04-19.35,17.41-23.7,31.94,5.33,4.07,13.28,18.48,20.77,13.73l26.53-24.26,23.23,23.2h123.76ZM137.9,304.99l-7.68,7.68,27.65,27.59,7.68-7.68-27.65-27.59Z"/>
  <g>
    <path class="st1" d="M268.93,84.88c-9.16-1.09-15.98-8.06-16.97-17.14-1.27-11.7-1.25-38.2-.08-49.96.89-9,7.29-15.9,16.32-17.06,28.08,1.65,58.63-2.18,86.41-.03,7.63.59,15.88,6.27,16.96,14.24,2.24,16.43-1.54,37.42.07,54.35-3.39,18.68-21.15,14.94-35.37,16.16l-55.73,34.98,5.45-35.54c-5.42-.46-11.76.63-17.06,0ZM268.2,72.54h32.3c-1.15,7.17-3.27,14.49-4.05,21.71-.11,1.01-1.01,1.73.77,1.49l36.64-22.88c8.46-2.54,25.09,4.99,26.2-7.18,1.05-11.51,1.05-34.98,0-46.5-.34-3.7-1.55-5.69-5.46-6.15-27.19,2.05-58.26-2.67-84.99-.03-2.92.29-5.04,1.71-5.44,4.72,1.41,15.61-1.75,34.14.02,49.38.25,2.17,1.79,4.95,4.01,5.43Z"/>
    <rect class="st1" x="275.82" y="24.67" width="71.86" height="12.33"/>
    <rect class="st1" x="275.82" y="48.6" width="47.91" height="12.33"/>
    <rect class="st1" x="336.07" y="48.6" width="11.61" height="12.33"/>
  </g>
  <g>
    <path class="st0" d="M251.87,201.67v10.52c0,3.82-8.06,4.63-10.89,3.98l3.76-12.2,7.13-2.31Z"/>
    <path class="st0" d="M126.3,170.48v20.31c-7.58-4.27-8.46-16.84,0-20.31Z"/>
    <path class="st0" d="M246.06,190.79v-20.31c8.21,3.94,7.7,15.89,0,20.31Z"/>
  </g>
</svg>