<?xml version="1.0" encoding="UTF-8"?>
<svg id="Layer_1" xmlns="http://www.w3.org/2000/svg" version="1.1" viewBox="0 0 384 384">
  <!-- Generator: Adobe Illustrator 29.2.1, SVG Export Plug-In . SVG Version: 2.1.0 Build 116)  -->
  <path d="M204.07,0l19.65,2.47c82.13,13.4,147.88,81.11,158.67,163.76.59,4.51.46,9.45,1.61,13.77v24c-1.16,4.32-1.01,9.26-1.61,13.77-11.25,84.89-79.61,153.52-164.56,164.62-4.51.59-9.44.46-13.76,1.61h-23.99c-4.32-1.16-9.26-1.01-13.76-1.61C83.56,371.42,16.14,305.98,2.61,223.66L.15,204c.34-7.93-.46-16.09,0-24C5.72,84.69,84.81,5.57,180.08,0h23.99ZM182.17,30.22C62.15,37.48-9.24,170.66,52.77,274.73c62.17,104.33,212.4,105.68,276.81,2.71,69.7-111.42-17.11-255.1-147.41-247.22Z"/>
  <path d="M183.67,94.72c24.86-1.79,49.96,6.12,69.14,21.89,8.67,7.13,17.76,18.11,6.38,28.16s-19.71-.79-28.22-7.06c-48.36-35.7-115.48,5.1-106.92,64.21,7.25,50.07,66.06,74.54,106.92,44.37,3.24-2.39,5.86-5.55,8.83-7.66,15.6-11.06,33.9,8.43,18.25,24.25-37.88,38.29-104.57,33.84-139.84-5.62-53.83-60.23-14.92-156.74,65.46-162.54Z"/>
</svg>