<?xml version="1.0" encoding="UTF-8"?>
<svg id="Layer_1" xmlns="http://www.w3.org/2000/svg" version="1.1" viewBox="0 0 384 384">
  <!-- Generator: Adobe Illustrator 29.3.1, SVG Export Plug-In . SVG Version: 2.1.0 Build 151)  -->
  <defs>
    <style>
      .st0 {
        fill: #fff;
      }

      .st1 {
        fill: #384bff;
      }
    </style>
  </defs>
  <path class="st1" d="M31.81,300.91c-12.18-1.29-24.31-11.96-25.74-24.41l.11-189.11c2.47-12.28,10.94-21.42,23.46-23.69,1.46-.26,4.8.27,5.44-.17.73-.5.28-5.79,4.55-7.06s16.03,1.13,11.41-6.85c-4.21-7.29-10.83-5.36-3.45-15.88,3.12-4.44,16.65-17.63,21.64-18.09,6.34-.58,6.58,5.8,11.05,7.73,5.23,2.25,5.52-2.26,6.36-6.73.9-4.81-1.43-9.02,5.24-10.48,5.87-1.29,27.04-1.74,31.63,1.69,3.65,2.73.8,8.2,1.82,12.4,2.38,9.79,8.51-.64,11.69-2.64,5.1-3.21,9.13.82,13.04,4.11,3.52,2.96,14.65,15.16,15.24,19.24.76,5.25-10.16,8.83-8.78,15.09,3.78,2.56,9.84.55,13.22,2.12,2.6,1.21,1.94,4.75,3.65,5.33l178.83.07c13.59,1.49,23.62,12.39,25.08,25.82l-.03,186.41c-.51,11.56-14.38,25.08-25.82,25.08h-114.15v26.2h22.83c.25,0,4.07,1.73,4.65,2.09,3.7,2.32,5.85,6.68,6.24,10.98.46,5.16.73,21.47-.2,26.06s-5.34,8.44-9.54,9.92H121.99c-4.82-1.72-9.09-5.97-9.73-11.23-.6-4.95-.62-22.79.35-27.38.83-3.9,6.56-10.44,10.52-10.44h22.83v-26.2H31.81ZM114.53,17.21c-5.35.14-10.38-1.34-15.66.07-.55,17.22-16.51,24.69-28.98,11.99-1.43-.25-10.77,7.84-11.4,10.17,11.75,13.49,5.14,28.24-12.83,27.93-.04,5.47-.99,10.24.01,15.71,16.98.23,24.04,16.26,11.27,28.18l10.16,11.45c11.27-9.5,23.41-8.26,27.04,7.34.55,2.37-.94,5.64,2.04,6.19,1.5.28,13.24.15,13.9-.32,2-17.32,16.61-23.64,29.52-10.96l10.77-10.2c-.43-2.72-2.8-3.95-4.03-6.97-5.49-13.48,3.57-22.17,16.8-22.47l.78-15.69c-11.42.26-21.03-8.38-16.83-20.19,1.26-3.53,4.14-5.33,5.27-7.52s-8.14-10.06-9.89-11.91c-13.36,11.88-28.68,5.11-27.96-12.78ZM34.43,74.85c-6.18.17-12.39,3.6-15.1,9.22-.39.81-2.11,5.68-2.11,6.12v163.56h348.82V90.2c0-.44-1.72-5.31-2.11-6.12-2.59-5.37-8.18-8.53-13.99-9.21h-176.28c-.17,5.25.69,20.86-6.43,21.69-2.86.34-11.53-2.41-12.91,2.8-1.59,5.98,11.61,8.22,7.27,16.94-2.42,4.85-16.66,18.56-21.63,20.28-8.8,3.04-8.5-8.72-16.68-7.73-6.43,8.98,2.67,15.2-11.56,18.41-6.2,1.4-18.29,1.18-24.31-.72-8.6-2.71-.94-16.17-7.06-17.71-4.12-1.03-8.09,10.36-15.17,7.76-4.62-1.7-21.11-19.12-21.73-23.99-.75-5.86,10.62-10.8,8.66-14.53-2.19-4.17-14.66-.64-16.57-6.69-.17-.52-1.08-5.37-1.08-5.66v-10.85ZM366.04,265.73H17.22c-1.12,10.6,3.16,21.27,14.59,23.21l318.16.03c12.46-.93,17.16-11.91,16.06-23.24ZM226.06,300.91h-68.87v26.2h68.87v-26.2ZM258.82,339.27l-3.91-.96-128.01.05c-1.61.3-3.07,1.78-3.37,3.37-.56,3-.46,16.96.03,20.14.3,1.94,1.07,3.58,3.28,3.46l130.27-.06c.77-.1,1.48-.41,1.96-1.03,1.01-1.29.98-18.91.68-21.79-.12-1.12-.24-2.25-.93-3.18Z"/>
  <rect class="st0" x="157.19" y="300.91" width="68.87" height="26.2"/>
  <path class="st1" d="M204.9,273.41c1.8,1.92,1.42,7.03-.92,8.8-2.97,2.25-21.08,2.21-24.28.3-4.04-2.41-3.36-9.67,1.98-10.61,3.76-.66,14.63-.63,18.56-.2,1.16.13,3.94.94,4.65,1.71Z"/>
  <g>
    <path class="st1" d="M205.65,93.75l128.6-.21c12.36,1.27,18.26,9.36,19.09,21.33,2.33,33.47-1.84,69.61,0,103.36-1.01,12.75-9.54,20.35-22.08,21.33-39.25-2.26-81.69,2.91-120.57,0-11.74-.88-20.26-6.69-21.33-19.09-3.01-34.86,2.31-74,.02-109.32,1.3-9.03,7.35-15.54,16.28-17.41ZM341.33,132.49v-20.58c0-3.64-6.64-7.35-10.11-7.1-38.72,2.45-81.55-3.3-119.78-.03-4.67.4-10.83,3.13-10.83,8.63v19.09h140.73ZM341.33,143.72h-139.6l-1.12,1.12v74.11c0,2.6,3.26,7.51,6.11,8.11l126.01.49c3.05.5,8.61-4.51,8.61-7.11v-76.73Z"/>
    <path class="st1" d="M291.56,162.02c1.78,0,3.52,1.24,4.89,2.27,3.19,2.4,14.1,13.03,16.76,16.17,2.42,2.85,2.19,5.28.09,8.21-1.79,2.49-14.77,15.45-17.25,17.18-5.58,3.9-11.63-1.45-9.17-6.89,1.35-2.99,13.54-12.56,13.23-14.34-2-3.44-13.16-11.65-14.02-14.48-1.21-3.99,1.14-8.12,5.46-8.12Z"/>
    <path class="st1" d="M276.03,156.57c5.11-.85,6.49,4.12,5.98,8.29-1.65,13.56-9.14,30.09-11.41,43.99-3.45,7.76-13.51,4.55-11.43-3.94l12.17-44.73c.43-1.69,3.1-3.34,4.69-3.61Z"/>
    <path class="st1" d="M250.39,162.02c.89,0,1.79.4,2.54.84,10.55,6.16-8.35,16.78-11.89,21.65,0,1.01,12.91,11.5,13.87,14.55,1.98,6.27-3.64,10.54-9.02,6.78-2.47-1.73-15.46-14.7-17.25-17.18-2.29-3.19-2.24-5.65.39-8.65s14-14.05,16.85-16.09c1.18-.84,3.06-1.91,4.5-1.91Z"/>
    <path class="st1" d="M282,123.32c-.94,1.03-3.92,1.59-5.38,1.73-19.49,1.76-41.64-1.4-61.42-.04-8.23-.59-8.57-11.04-.02-11.99,19.29-2.15,42.45,1.66,62.16,0,5,.04,8.04,6.61,4.65,10.31Z"/>
    <path class="st1" d="M294.73,113.21c5.91-1.07,15.21-.14,12.59,8.09-1.42,4.45-8.18,4.17-11.95,3.64-7.68-1.09-7.67-10.46-.64-11.73Z"/>
    <path class="st1" d="M316.08,123.32c-2.76-3-1.18-8.76,2.76-9.96,6.1-1.85,15.87-.31,13.35,8.12-1.4,4.7-13.64,4.53-16.11,1.84Z"/>
  </g>
  <g>
    <path class="st1" d="M52.97,189.58l102.02.14c28.98,7.01,26.67,46.91-4.25,49.72-29.61,2.69-62.77-1.83-92.75.13-30.57-1.23-35.04-43.03-5.02-49.99ZM56.71,200.8c-16.03,2.85-16.9,23.06-.88,26.69h96.43c16.17-4.32,14.92-24.97-2.27-26.79-29.2-3.09-63.55,1.96-93.28.1Z"/>
    <path class="st1" d="M66.44,208.29c9.71-1.41,39.97-1.32,49.87-.11,4.96.61,7.26,2.35,6.4,7.73-.47,2.92-2.02,3.85-4.8,4.18-16.36,1.91-36.36-1.42-53.12-.06-6.38-1-7.74-10.38,1.65-11.74Z"/>
  </g>
  <path class="st1" d="M142.87,77.22c0,21.49-17.42,38.91-38.91,38.91s-38.91-17.42-38.91-38.91,17.42-38.91,38.91-38.91,38.91,17.42,38.91,38.91ZM131.21,77.21c0-15.06-12.21-27.27-27.27-27.27s-27.27,12.21-27.27,27.27,12.21,27.27,27.27,27.27,27.27-12.21,27.27-27.27Z"/>
</svg>