<?xml version="1.0" encoding="UTF-8"?>
<svg id="Layer_1" xmlns="http://www.w3.org/2000/svg" version="1.1" viewBox="0 0 384 384">
  <!-- Generator: Adobe Illustrator 29.3.1, SVG Export Plug-In . SVG Version: 2.1.0 Build 151)  -->
  <defs>
    <style>
      .st0 {
        fill: #fff;
      }

      .st1 {
        fill: #384bff;
      }
    </style>
  </defs>
  <path class="st1" d="M236.71,323.81c0,13.1-10.62,23.73-23.73,23.73s-23.73-10.62-23.73-23.73,10.62-23.73,23.73-23.73,23.73,10.62,23.73,23.73ZM225.5,323.81c0-6.91-5.6-12.51-12.51-12.51s-12.51,5.6-12.51,12.51,5.6,12.51,12.51,12.51,12.51-5.6,12.51-12.51Z"/>
  <path class="st1" d="M62.66,300.33c2.66-.59,11.88-.5,14.81-.16,21.21,2.4,23.45,38.76,4.1,46.03-3.62,1.36-17.44,2.07-20.49.3-2.26-1.31-2.53-4.6-2.73-7-.68-8.04-.86-25.1.03-32.96.32-2.81,1.18-5.51,4.28-6.2ZM69.61,336.09c18.76,4.52,19.07-29.25,0-24.7v24.7Z"/>
  <path class="st1" d="M303.2,315.09c8.84,3.25,21.94,6.29,21.47,18.18-.42,10.65-10.97,15.08-20.39,14.05-5.87-.64-18.25-7.16-13.43-14.2,4.41-6.43,10.05,2.48,14.92,2.98,3.14.33,6.66.07,7.68-3.4-3.2-4.41-9.28-4.59-13.79-6.97-17.8-9.41-3.17-32.54,16.97-23.71,10.01,4.39,7.45,14.6-.2,12.97-3.17-.67-11.79-8.81-13.23.09Z"/>
  <path class="st1" d="M117.52,329.36v6.74c4.11.33,10.79-1.23,13.9,2.18,2.65,2.91,1.55,8.3-2.32,9.02-2.76.51-15,.45-17.98.06-2.44-.32-3.43-1.63-4.49-3.74.22-11.84-1.43-25.48-.37-37.13.21-2.31.54-4.26,2.74-5.49s17.88-1.32,20.54-.5c3.72,1.15,4.61,6.56,2,9.19-.18.18-2.98,1.7-3.16,1.7h-10.85v6.74c4.64.24,13.34-1.81,14.2,4.93.27,2.07-1.82,6.3-3.35,6.3h-10.85Z"/>
  <path class="st1" d="M259.74,331.6v10.85c0,5.3-9.71,7.25-11.07,1.34l-.2-38.8c.57-6.48,12.65-5.39,17.63-4.83,10.93,1.23,17.29,13.51,12.01,23.25-3.72,6.85-10.97,9.06-18.38,8.2ZM259.74,320.38c12.29,2.08,12.26-10.87,0-8.99v8.99Z"/>
  <path class="st1" d="M162.44,324.86c1.26,1.23,1.26-.38,1.56-1.05,2.19-4.85,4.93-19.01,7.83-22.12,2.06-2.2,5.89-2.04,8.02-.07,1.76,1.63,1.46,4.8,1.12,6.97-.89,5.67-8.62,28.12-11.21,33.7-2.93,6.29-9.36,7.54-12.6.95-5.18-10.52-7.54-25.22-12.54-36.17-1.03-5.96,5.9-9.52,9.92-4.64,3.2,3.88,6.13,20.69,7.9,22.42Z"/>
  <g>
    <path class="st1" d="M0,152.7c1.24-6.56,2.17-13.16,3.96-19.62,9.64-34.91,38.53-63.96,73.9-72.45-7.25-18.35,14.78-33.19,29.18-19.82,3.7,3.44,16.4,19.25,19.03,23.64,3.43,5.72,3.92,10.34,1.77,16.61-1.99,5.81-14.23,28.14-18.62,31.54-9.37,7.25-23.97,2.97-27.42-8.38-.76-2.49-.62-4.21-.97-6.52-.12-.83.37-1.54-1.09-1.11-2.05.61-8.63,4.35-10.81,5.66-26.83,16.2-39.08,47.67-30.96,78,1.29,4.83,7.18,15.29,6.05,19.09s-6.84,4.41-9.37,1.82c-1.46-1.5-5.71-12.21-6.54-14.79-11.68-36.56,3.77-76.62,37.27-95.16,5.69-3.15,34.4-16.94,30.09-.6-.53,2-2.85,4.5-3.25,6.52-1.36,6.91,6.99,10.82,11.72,4.93,2.82-3.51,11.31-19.66,13.22-24.21,1.23-2.93,1.36-3.75-.08-6.66-1.54-3.11-12.37-15.98-15.28-19.15-3.57-3.89-9.15-8.61-13.01-1.83-4.23,7.44,9.28,11.67,2.2,17.92-1.63,1.44-16.09,4.63-20.06,6.14C1.95,100.68-9.95,194.41,50.36,237.45c55.5,39.61,134.39,7.79,146.3-59.13,2.19-12.32.84-24.32,3.85-36.57,13.26-54.11,77.74-78.26,123.84-46.55,51.6,35.49,43.93,114.96-13.21,139.97-4.55,1.99-18.22,7.38-22.19,3.96-4.88-4.2,1.73-9.73,2.2-13.52.79-6.35-6.72-10.46-11.24-5.74-2.05,2.14-9.04,16.03-10.84,19.64-2.43,4.87-5.55,8.22-2.2,13.46,1.96,3.06,15.19,19.41,17.59,21.33,4.03,3.24,9.63,1.86,10.88-3.34,1.34-5.55-9.24-10.88-3.4-16.07,1.52-1.35,16.74-4.89,20.58-6.37,52.49-20.28,72.6-78.59,49.67-129.05-1.68-3.7-5.24-6.54-4.25-11.15.93-4.33,6.17-5.04,9.25-2.08s7.55,13.62,9.13,17.81c22.13,58.8-10.92,121.87-70.62,138.63,5.89,16.86-12.84,32.05-27.62,20.99-3.04-2.27-21.42-25-22.68-28.22-2.12-5.44-1.67-9.62.46-14.95,2-4.97,12.94-25.35,16.2-28.71,11.48-11.84,31.78-1.84,30.35,14.25,46.7-16.07,60.55-76.81,26.21-112.67-48.92-51.1-134.31-3.47-117.17,65.52,5.39,21.71,15.71,28.8,31.43,41.93s2.88,37.54-16.66,30.89c-2.81-.96-4.73-2.51-7.14-4.09-10.4-6.83-19.92-16.66-26.65-27.09l-1.54-.46c-38.55,58.57-124.21,61.53-167.98,6.65C10.39,211.03,1.52,190.11,0,169.92v-17.22ZM237.05,240.04c7.74-7.08-7.46-14.37-11.75-18.09-8.79-7.62-15.65-17.58-20.57-28.08l-6.38,14.66c5.75,11.32,16.96,23.62,27.91,30.42,3.45,2.14,6.95,4.6,10.79,1.09Z"/>
    <path class="st1" d="M350.83,85.57c3.99,4.73.3,10.79-5.97,9.34-1.63-.38-10.8-8.64-13.47-10.49-58.01-40.07-137.61-2.94-145.75,66.42-1.55,13.2-.36,23.21-4.68,36.49-16.47,50.67-80.5,71.24-123.58,39.35-3.8-2.81-10.73-7.21-6.84-12.58,4.66-6.45,13.6,3.92,18.56,6.85,58.64,34.59,126.69-26.93,98.45-88.72-2.32-5.09-10.61-13.79-3.07-17.53,7.47-3.7,11.14,10.26,14.03,14.8l6.24-15.93c-4.49-7.88-10.67-15.46-17.44-21.51-4.16-3.71-18.54-16.54-22.28-7.27-4.11,10.19,10.42,8.74,9.14,17.34-1.62,10.84-18.79-1.1-20.61-10-2.79-13.64,7.46-23.57,20.94-21.68,10.96,1.54,30.38,22.91,36.75,32.12,1.13.28,6.87-8.23,8.21-9.74,33.55-37.63,88.38-47.47,132.36-21.55,4.77,2.81,15.63,10.32,19,14.31Z"/>
    <path class="st0" d="M237.05,240.04c-3.83,3.51-7.34,1.05-10.79-1.09-10.95-6.79-22.16-19.1-27.91-30.42l6.38-14.66c4.92,10.5,11.78,20.45,20.57,28.08,4.29,3.72,19.49,11.01,11.75,18.09Z"/>
  </g>
</svg>