<?xml version="1.0" encoding="UTF-8"?>
<svg id="Layer_1" xmlns="http://www.w3.org/2000/svg" version="1.1" viewBox="0 0 384 384">
  <!-- Generator: Adobe Illustrator 29.3.1, SVG Export Plug-In . SVG Version: 2.1.0 Build 151)  -->
  <defs>
    <style>
      .st0 {
        fill: #384bff;
      }
    </style>
  </defs>
  <path class="st0" d="M0,49.4c2.94-11.23,11.1-18.57,22.8-19.49h337.64c12.28.61,21.77,9.81,22.83,22.08v231.35c.16,10.01-11.51,22.05-21.36,22.05h-115.65l4.41,36.24c1.04,1.46,17.84-.61,21.6,1,4.36,1.87,3.64,8.53-.51,10.33l-157.65.36c-5.66.63-8.51-7.62-3.63-10.43,3.82-2.21,20.93.35,22.08-1.27l4.41-36.24H21.33c-.96,0-5.6-1.6-6.87-2.12-7.98-3.23-11.99-9.4-14.47-17.35V49.4ZM21.51,41.35c-6.41,1.64-9.72,5.53-10.32,12.14v228.36c.68,7.59,5.57,11.96,13.1,12.35h333.91c7.85-.07,13.14-4.44,13.85-12.35V53.49c-.35-6.85-5.51-12.01-12.35-12.35l-338.19.21ZM143.72,342.08h95.81l-4.49-36.68-21.01.33c-.84.59-1.94,7.59-2.59,9.38-6.81,18.88-32.86,18.8-39.64,0-.72-2.01-1.5-7.99-2.24-8.98-1.3-1.73-18.04-.21-21.36-.73l-4.49,36.68ZM202.11,305.4h-20.96c.75,16.89,20.22,16.86,20.96,0Z"/>
  <path class="st0" d="M35.18,65.12v205.1c3.76.3,9.01-1.37,11.26,2.58,1.22,2.14,1.03,4.98-.75,6.81-2.69,2.77-21.41,3.9-21.69-3.07l.52-219.46c1.15-2.2,3.25-3.33,5.76-3.22l287.49.02c8.37.96,5.52,11.24,1.48,11.24H35.18Z"/>
  <path class="st0" d="M348.07,65.12c-3.76-.3-9.01,1.37-11.26-2.58s.44-8.15,4.88-8.66c4.91-.57,16.85-1.55,17.56,4.93l-.28,218.95-4.14,3.34-288.6.37c-4.18-.15-7.56-3.98-5.79-8.06.28-.64,2.53-3.19,2.81-3.19h284.82V65.12Z"/>
  <path class="st0" d="M172.16,221.57c4.58,14.47-8.34,27.94-22.87,22.49-6.5-2.44-11.36-9.23-11.49-16.21-.05-2.56,2.19-7.47,1.99-8.78-.16-1.01-2.34-3.09-2.95-4.47-4-8.99,5.04-17.12,7.47-25.46-1.07-1.61-2.01-2.95-2.63-4.83-7.72-23.68-13.05-48.47-20.58-72.24-3.45-4.85-19.36-10.36-19.23-16.64.09-4.03,4.38-6.36,7.94-5.02,1.57.59,16.87,10.77,18.36,12.14,1.58,1.46,2.33,3.45,3.31,5.28l134.06,6.52c2,1.22,3.98,3.16,3.88,5.7-3.84,15.02-5.4,31.22-9.29,46.14-3.44,13.17-9.03,18.5-22.57,20.85-23.26,4.04-53.35,7.27-77,9.08-2.05.16-4.05.09-6.03-.5l-7.06,14.73h106.67c.92,0,3.09,3.71,3.15,4.98.09,2.04-1.62,3.33-1.71,4.39-.41,4.85,3.84,6.75.06,15.33-8.82,20.07-39.98,7.91-32.56-13.48h-50.9ZM141.47,143.72h19.46l-3.66-22.77c-7.41-1.49-15-1.21-22.54-1.17l6.74,23.95ZM192.37,122.01l-23.21-.75,3,22.46h20.21v-21.71ZM203.6,122.76v20.96h20.21l1.5-20.21-21.71-.75ZM235.04,143.72h17.96l3.74-18.71c-6.76-.16-13.42-1.2-20.21-.76l-1.49,19.47ZM162.06,154.95h-16.84c2.73,7.29,3.88,19.42,7.33,25.98s9.33,2.69,15.12,3.21c-.83-3.72-3.72-28.57-5.61-29.19ZM192.37,180.02v-23.95l-1.12-1.12h-16.84l4.49,27.7,12.21-1.64,1.26-.98ZM222.32,154.95h-18.71v24.7l17.11-2.35,1.6-22.35ZM250.76,154.95h-16.09c-.76.48-.96,1.03-1.12,1.88-1.07,5.91-.84,13.04-1.51,19.08,14.64,1.34,17.38-8.88,18.72-20.96ZM161.9,227.65c0-3.48-2.82-6.3-6.3-6.3s-6.3,2.82-6.3,6.3,2.82,6.3,6.3,6.3,6.3-2.82,6.3-6.3ZM246.03,227.62c0-3.5-2.84-6.34-6.34-6.34s-6.34,2.84-6.34,6.34,2.84,6.34,6.34,6.34,6.34-2.84,6.34-6.34Z"/>
</svg>