<?xml version="1.0" encoding="UTF-8"?>
<svg id="Layer_1" xmlns="http://www.w3.org/2000/svg" version="1.1" viewBox="0 0 512 512">
  <!-- Generator: Adobe Illustrator 29.3.1, SVG Export Plug-In . SVG Version: 2.1.0 Build 151)  -->
  <defs>
    <style>
      .st0 {
        fill: #384bff;
      }
    </style>
  </defs>
  <g>
    <path class="st0" d="M216.11,284.54c-2.34,14.94-20.87,23.61-34.41,16.66-21.06-10.81-10.36-43.67-12.88-62.83-34.59-13.32-43.35-59.03-13.32-82.47,18.77-14.65,39.42-8.45,61.09-9.89,21.99-1.47,44.15-9.47,60.68-24.1,2.01-1.78,2.85-4.93,5.51-6.32,5.24-2.75,10.95-.58,12.14,5.35l.05,48.75c41.85-4.75,41.83,52.07,0,47.31l-.05,48.75c-1.17,5.9-6.88,8.12-12.14,5.35-2.65-1.4-3.5-4.54-5.51-6.32-17.26-15.29-38.4-22-61.16-24.11v43.87ZM279.21,141.09l-28.08,13.82c-11.05,4.12-22.71,5.56-34.38,6.84l-.58,63.1c16.83,1.25,32.26,4.89,47.48,12.16,5.32,2.54,10.18,6.2,15.57,8.59v-104.5ZM200.34,161.8h-20.21c-14.19,0-27.03,17.54-27.19,31.04-.16,13.74,12.59,32.06,27.19,32.06h20.21v-63.1ZM294.99,201.23c21.39,3.79,21.38-19.57,0-15.77v15.77ZM200.34,240.67h-15.77v41.9c0,6.87,15.77,6.87,15.77,0v-41.9Z"/>
    <path class="st0" d="M434.67,228.52c-4.63,4.23-12.02,1.87-13.43-4.18l-.05-120.23c-1.55-11.22-10.76-20.3-22.15-21.23H112.06c-10.81.86-19.56,9.08-21.9,19.5l-.2,121.07c-1.17,9.54-14.7,9.52-15.86,0,2.37-38.78-3.01-81,0-119.37,1.55-19.7,16.53-34.72,36.04-36.92l288.9-.06c19.19.84,35.79,15.96,37.79,35.16,3.94,37.84-2.75,81.74.19,120.22.09,1.96-.91,4.72-2.35,6.03Z"/>
    <g>
      <path class="st0" d="M363.74,146.23c8.35-1.67,13.48,7.11,8.17,13.13-1.08,1.23-17.69,9.76-19.49,10.12-8.29,1.65-13.53-7.05-8.17-13.13,1.08-1.23,17.68-9.76,19.49-10.12Z"/>
      <path class="st0" d="M347.95,217.2c2-.44,3.3-.26,5.23.27s17.01,8.23,18.23,9.38c6.02,5.64,1.12,15.37-7.67,13.62-1.61-.32-17.8-8.52-18.99-9.63-4.35-4.07-2.85-12.31,3.2-13.63Z"/>
      <path class="st0" d="M347.94,185.67c3.06-.68,18.2-.66,21.04.23,7.05,2.21,6.59,14-1.59,15.27-3.33.52-17.29.53-20.2-.38-6.85-2.15-6.5-13.5.76-15.12Z"/>
    </g>
  </g>
  <path class="st0" d="M50.14,188.7c4.85-.29,9.05,5.09,8.06,9.84-1.22,5.88-15.22,12.88-18.17,18.42l202.23,174.53c11.96,9.34,14.6,9.35,26.57,0l202.23-174.53c-3.89-7.05-21.72-13.72-17.59-23.36,2.56-5.98,8.11-5.51,12.8-2.47,12.08,7.85,24.96,22.22,25.87,37.23l.05,227.76c-1.71,19.92-16.97,35.4-36.97,36.97H55.87c-19.71-1.55-34.73-16.55-36.92-36.04l-.05-227.76c.89-7.58,2.87-14.94,7.51-21.08,3.14-4.15,19.14-19.24,23.72-19.52ZM34.71,234.75v222.32c0,1.5,2.59,6.64,3.45,8.38l132.61-114.84L34.71,234.75ZM476.39,457.07v-222.32l-136.05,116.82,132.61,113.88c1.07-2.19,3.12-6.12,3.45-8.38ZM460.61,476.29l-132.09-113.98-1.97.07-52.36,45.32c-10.36,7.78-23.15,8.7-34.33,1.97l-55.93-47.63-133.45,114.25h410.13Z"/>
  <path class="st0" d="M252.38,20.11c8.19-.87,15.75,1.93,22.4,6.62,2.47,1.74,12.43,10.65,13.72,12.9,2.49,4.34.4,9.83-4.31,11.32-9.27,2.92-17.62-15.75-29.09-15.39-11.3.35-20.93,21.77-30.62,13.87-3.99-3.26-3.82-7-1-10.91,5.28-7.31,19.81-17.44,28.91-18.41Z"/>
</svg>