<?xml version="1.0" encoding="UTF-8"?>
<svg id="Layer_1" xmlns="http://www.w3.org/2000/svg" version="1.1" viewBox="0 0 409.6 409.6">
  <!-- Generator: Adobe Illustrator 29.2.1, SVG Export Plug-In . SVG Version: 2.1.0 Build 116)  -->
  <defs>
    <style>
      .st0 {
        fill: #fff;
      }
    </style>
  </defs>
  <path class="st0" d="M409.03,148.1v185.24l-2.59,8.99c-4.99,12.62-17.01,21.48-30.55,22.93l-340.79.05c-15.56.46-34.68-16.78-34.68-32.37v-184.84c6.21,5.94,12.02,11.42,18.9,16.62,22.63,17.1,48.09,32.74,71.53,49,31.42,21.8,81.7,67.2,120.64,63.72,29.89-2.68,83.35-47.14,109.49-65.31,23.2-16.13,50.15-31.98,72.01-49.31,5.71-4.53,10.55-9.95,16.03-14.71Z"/>
  <path class="st0" d="M409.03,85.83c-1.97,20.46-16.09,37.89-30.75,51.08-46.11,30.89-90.89,66.45-137.39,96.48-9.87,6.38-24.52,15.54-36.55,15.39-11.69-.14-26.12-9.16-35.77-15.39-46.78-30.22-91.87-66.13-138.19-97.28C16.46,122.7-.08,104.51.38,83.79c.44-19.83,12.49-39.22,33.92-39.52l341.59.05c16.26,1.49,31.2,15.57,33.13,31.92.29,2.43.24,7.1,0,9.58Z"/>
</svg>