<?xml version="1.0" encoding="UTF-8"?>
<svg id="Layer_1" xmlns="http://www.w3.org/2000/svg" version="1.1" viewBox="0 0 329.14 329.14">
  <!-- Generator: Adobe Illustrator 29.2.1, SVG Export Plug-In . SVG Version: 2.1.0 Build 116)  -->
  <path d="M253.13.31l16.31,3.26c26.46,7.55,47.91,28.85,55.87,55.13l3.53,17.32v177.08c-3.97,40.98-36.6,73.26-77.93,75.74l-173.25-.03C36.23,326.11,3.15,292.83.34,251.49l-.03-173.25C2.31,37.84,35.68,3.44,76.04.31h177.08ZM75.91,28.09c-25.09,2.94-45.04,23.29-47.91,48.33l-.07,175.71c2.73,25.94,23.63,46.79,49.69,49.12l174.53-.03c26.02-2.63,46.72-23.71,49.12-49.69l-.03-174.53c-2.73-25.71-23.22-46.46-49.08-49.08l-176.24.18Z"/>
  <path d="M222.75,106.4c43.43,43.43,24.75,119.04-33.93,136.61-65.5,19.61-124.72-43.2-101.06-107.48,20.39-55.41,93.13-71,134.99-29.13ZM158.04,110.21c-37.85,3.71-59.53,46.59-41.91,80.02,22.41,42.5,86.67,36.85,100.59-9.15,11.72-38.72-18.72-74.79-58.68-70.87Z"/>
  <path d="M252.98,55.02c25.99-.83,27.94,38.23,3.68,40.89-29.37,3.22-31.4-40.01-3.68-40.89Z"/>
</svg>