<svg width="46" height="52" viewBox="0 0 46 52" fill="none" xmlns="http://www.w3.org/2000/svg">
<g clip-path="url(#clip0_115_208)">
<path d="M0.723209 52.0001C-0.0787821 51.4969 -0.0249825 50.893 0.0250638 50.0178C0.276546 45.564 2.89772 40.891 6.52607 38.4297C8.89576 36.8219 11.6946 36.3264 14.3058 35.2639L15.9911 31.8916C15.2003 30.9132 14.4396 29.9157 13.9104 28.7564C12.7631 28.7182 11.7096 28.6825 10.8588 27.7958C9.96049 26.8594 9.98301 25.6797 9.99678 24.4516C8.8257 24.0452 8.11629 22.984 8.01119 21.7431C7.76221 18.8002 7.84854 13.4126 8.68556 10.6226C12.9357 -3.54409 33.0656 -3.53517 37.3133 10.6226C38.1503 13.4113 38.2366 18.8002 37.9876 21.7431C37.7612 24.4172 35.4203 24.8516 33.2032 24.6516C33.003 25.4147 32.9455 26.2161 32.7415 26.9792C32.2436 28.8379 31.2276 30.452 30.009 31.8929L31.6943 35.2651C34.3055 36.3264 37.1043 36.8232 39.474 38.431C43.1024 40.8923 45.7235 45.5653 45.975 50.0191C46.0238 50.8943 46.0789 51.4982 45.2769 52.0014H0.723209V52.0001ZM35.987 14.1604C35.7581 12.4609 35.3715 10.8353 34.6258 9.28997C32.0622 3.97876 26.2143 1.0881 20.499 2.2041C14.7699 3.32393 10.5535 8.27716 10.013 14.1604H12.0111C12.0737 9.7588 14.9701 5.73939 19.1027 4.44503C21.2397 3.77619 24.7579 3.77492 26.8974 4.44503C31.03 5.73939 33.9264 9.7588 33.9889 14.1604H35.987ZM31.9908 15.177V13.4992C31.9908 11.8328 30.6233 9.38807 29.446 8.25805C26.427 5.36357 20.5678 5.19158 17.2722 7.6682C15.5807 8.93963 14.1831 11.1882 14.1581 13.3463C15.607 11.5309 18.0417 10.2455 20.3538 10.0939C21.7189 10.0047 21.6288 10.4417 22.4983 11.1614C25.2922 13.4712 28.37 14.8254 31.9896 15.1783L31.9908 15.177ZM18.2044 28.7067H16.2063C16.5203 29.4112 17.0971 30.1157 17.6526 30.6419C21.3698 34.1606 27.0988 33.2242 29.735 28.9016C30.7872 27.1766 31.0975 25.2415 31.3778 23.2515C31.6593 21.2603 31.7994 19.2308 31.8795 17.223C28.6015 16.837 25.4986 15.8357 22.7686 13.9374C22.3657 13.6572 20.6779 12.1475 20.4577 12.1399C19.946 12.122 18.8812 12.4571 18.3783 12.6584C17.2823 13.0979 16.3276 13.8738 15.5569 14.7694C15.3467 15.014 14.2107 16.5096 14.1544 16.6969C14.053 17.0307 14.0993 17.6982 14.1106 18.0753C14.1444 19.1162 14.2983 20.3787 14.4096 21.4323C14.5973 23.1891 14.8925 24.9344 15.2128 26.667L18.138 26.676C18.6122 25.5434 19.5243 24.7624 20.753 24.6389C22.8737 24.4248 25.71 24.6172 25.9853 27.3435C26.3093 30.5527 23.1327 30.9795 20.753 30.74C19.6169 30.6253 18.5134 29.8494 18.2044 28.7067ZM12.0111 16.1949H10.013V21.7393C10.013 22.0107 10.5961 22.6043 10.8626 22.6043H12.5103L12.0111 16.1962V16.1949ZM35.987 16.1949H33.9889L33.4897 22.6031H35.1375C35.4027 22.6031 35.987 22.0094 35.987 21.738V16.1937V16.1949ZM12.7969 24.6516L12.0111 24.6376C11.9348 25.6186 11.9899 26.6836 13.211 26.6709L12.7981 24.6516H12.7969ZM20.8756 26.6964C19.9335 26.8696 19.687 28.1589 20.5753 28.5818C21.0195 28.7933 23.0651 28.7895 23.4905 28.5462C24.1711 28.1563 24.1273 27.1321 23.4267 26.7983C23.0363 26.6123 21.3373 26.6123 20.8756 26.6976V26.6964ZM28.5439 33.4892L24.3 38.0144L27.6443 41.4197C28.5864 39.8005 29.2596 38.0297 29.8739 36.2588L28.5439 33.4892ZM17.2072 33.7924L16.1087 36.2767C16.7668 38.0271 17.4036 39.8081 18.3557 41.4197L21.5012 38.1163L17.2084 33.7937L17.2072 33.7924ZM24.5978 34.7084C23.4042 34.8613 22.1793 34.8829 21.0019 34.6065L22.9387 36.534L24.5978 34.7084ZM21.2021 49.9656C18.6635 45.9806 15.931 42.1306 14.4596 37.5545L14.267 37.4551C12.3352 38.1927 10.2307 38.6233 8.41406 39.6387C4.74317 41.6898 2.46482 45.7818 2.02316 49.9656H21.2034H21.2021ZM43.9782 49.9656C43.5365 45.7831 41.2582 41.6898 37.5873 39.6387C35.7693 38.6233 33.6661 38.1927 31.7344 37.4551L31.5417 37.5545C30.0728 42.1255 27.3315 45.9818 24.7992 49.9656H43.9794H43.9782ZM22.8637 39.5979L19.4017 43.4033L23.0476 48.9489L26.5959 43.4033L22.8624 39.5979H22.8637Z" fill="#384BFF"/>
<path d="M37.3619 42.1521C37.492 42.133 37.5771 42.1254 37.7097 42.1521C38.5518 42.3139 41.009 45.3549 41.0341 46.2505C41.0516 46.8468 40.5436 47.3793 39.9418 47.3181C39.2099 47.2442 38.6644 45.8314 38.1814 45.2377C37.7648 44.7269 36.5186 43.7956 36.4924 43.1917C36.4724 42.7089 36.9002 42.2197 37.3619 42.1521Z" fill="#384BFF"/>
<path d="M33.9889 42.2235C34.5348 42.2235 34.9773 41.7729 34.9773 41.217C34.9773 40.6612 34.5348 40.2106 33.9889 40.2106C33.443 40.2106 33.0005 40.6612 33.0005 41.217C33.0005 41.7729 33.443 42.2235 33.9889 42.2235Z" fill="#384BFF"/>
</g>
<defs>
<clipPath id="clip0_115_208">
<rect width="46" height="52" fill="white"/>
</clipPath>
</defs>
</svg>
