<svg width="54" height="58" viewBox="0 0 54 58" fill="none" xmlns="http://www.w3.org/2000/svg">
<g clip-path="url(#clip0_115_191)">
<path d="M52.4764 58H38.2782C37.8815 57.7417 37.7072 57.414 37.7102 56.9291V23.5248C37.7779 22.7983 37.9191 22.5158 38.6673 22.4478C42.9268 22.0597 47.7632 22.7514 52.0843 22.4509C52.4299 22.4629 52.7424 22.682 52.9031 22.9855L52.9317 57.269L52.4749 57.9985L52.4764 58ZM51.3496 24.0383H39.405V56.4141H51.3496V24.0383Z" fill="#384BFF"/>
<path d="M46.3915 0.0392903C53.6544 0.821686 56.6639 10.3147 51.1829 15.2114C45.3038 20.4662 36.1402 15.873 36.7022 8.02184C36.9861 4.05096 40.4012 0.442572 44.3632 0.0392903C44.8711 -0.0120639 45.8867 -0.0150847 46.3915 0.0392903ZM52.3954 8.7408C52.3954 4.83184 49.2417 1.6645 45.3503 1.6645C41.459 1.6645 38.3053 4.83335 38.3053 8.7408C38.3053 12.6482 41.459 15.8171 45.3503 15.8171C49.2417 15.8171 52.3954 12.6482 52.3954 8.7408Z" fill="#384BFF"/>
<path d="M46.1843 4.55087C46.2294 4.6264 47.1729 4.9889 47.5425 5.62025C47.8611 6.16551 48.2457 7.57624 47.3457 7.73785C45.977 7.98254 46.575 6.56426 45.8733 6.16702C45.3489 5.86947 44.6803 6.08999 44.467 6.66093C43.9982 7.9191 45.9229 7.95535 46.6771 8.30275C48.3073 9.05192 48.2803 11.5471 46.9491 12.544C46.7658 12.6799 46.3 12.8129 46.2219 12.9458C46.0326 13.2675 46.3225 14.3807 45.2513 14.2508C44.3183 14.1375 44.7254 13.2161 44.5722 12.9654C44.5511 12.9307 44.0358 12.7464 43.8585 12.6074C43.2215 12.1075 42.2118 10.4566 43.1328 9.84186C44.2957 9.06551 44.3273 10.7829 44.6368 11.1469C45.2723 11.893 46.5674 11.2435 46.2564 10.1983C45.968 9.22863 43.5099 9.79504 42.9315 7.9916C42.5228 6.71681 42.9029 5.65801 43.9216 4.86202C44.0734 4.74421 44.5541 4.5841 44.5722 4.5539C44.7014 4.34244 44.3919 3.1477 45.4271 3.21416C46.3451 3.27306 46.0431 4.31525 46.1858 4.5539L46.1843 4.55087Z" fill="#384BFF"/>
<path d="M34.109 58H19.9107L19.5426 57.6345L19.4539 34.6188C19.4419 34.2804 19.5621 33.9361 19.9032 33.8243H34.115C34.4545 33.9345 34.5762 34.2774 34.5642 34.6188L34.4756 57.6345L34.1075 58H34.109ZM21.0375 35.3589V56.4141H32.9821V35.3589H21.0375Z" fill="#384BFF"/>
<path d="M35.6744 20.8739C35.6744 25.6816 31.7951 29.58 27.0082 29.58C22.2214 29.58 18.342 25.6816 18.342 20.8739C18.342 16.0663 22.2214 12.1679 27.0082 12.1679C31.7951 12.1679 35.6744 16.0663 35.6744 20.8739ZM34.0578 20.8785C34.0578 16.968 30.9026 13.7976 27.0097 13.7976C23.1169 13.7976 19.9617 16.968 19.9617 20.8785C19.9617 24.7889 23.1169 27.9593 27.0097 27.9593C30.9026 27.9593 34.0578 24.7889 34.0578 20.8785Z" fill="#384BFF"/>
<path d="M27.8165 16.6629C27.8616 16.7384 28.8126 17.1463 29.1732 17.7338C29.5924 18.4165 29.9139 19.9541 28.757 19.9541C27.6002 19.9541 28.2988 18.2111 27.0578 18.1582C26.269 18.125 25.9595 18.8213 26.1593 19.5206C26.3756 20.2849 28.8232 19.9435 29.3851 21.4842C29.8313 22.7076 29.5203 23.9869 28.4701 24.7663C28.3183 24.8796 27.8375 25.0442 27.8195 25.0744C27.6903 25.2859 27.9983 26.4821 26.9646 26.4142C25.997 26.3507 26.3456 25.301 26.2059 25.0744C26.1863 25.0442 25.707 24.8796 25.5553 24.7663C24.4149 23.919 23.8094 21.386 25.5808 21.9101C26.2179 22.0989 25.9219 23.2952 26.6701 23.5338C27.4754 23.7906 28.1335 23.1154 27.8916 22.3058C27.6467 21.4811 25.357 21.7968 24.7019 20.4163C24.1505 19.2548 24.4525 17.8833 25.4456 17.0858C25.6259 16.9408 26.1833 16.6992 26.2059 16.6629C26.3591 16.4107 26.0286 15.3005 27.0518 15.3549C28.0178 15.4063 27.6603 16.4001 27.8195 16.6629H27.8165Z" fill="#384BFF"/>
<path d="M1.54293 58L1.08618 57.2704L1.11473 25.1378C1.27549 24.8342 1.588 24.6152 1.93357 24.6031C6.21709 24.9022 11.016 24.215 15.2394 24.6001C15.9951 24.6696 16.2415 24.9158 16.3106 25.6755C16.207 36.3043 16.4879 46.9815 16.1694 57.5816L15.7412 58.0015H1.54293V58ZM14.6144 26.3023H2.66978V56.414H14.6144V26.3023Z" fill="#384BFF"/>
<path d="M17.3249 11.9081C17.3249 16.7142 13.447 20.6111 8.6617 20.6111C3.87635 20.6111 0 16.7142 0 11.9081C0 7.10195 3.87786 3.20508 8.6632 3.20508C13.4485 3.20508 17.3264 7.10195 17.3264 11.9081H17.3249ZM15.7112 11.9051C15.7112 7.99612 12.5576 4.82878 8.6662 4.82878C4.77483 4.82878 1.62266 7.99763 1.62266 11.9051C1.62266 15.8125 4.77633 18.9814 8.6677 18.9814C12.5591 18.9814 15.7128 15.8125 15.7128 11.9051H15.7112Z" fill="#384BFF"/>
<path d="M9.449 7.7197C9.47905 7.76954 10.2348 8.0822 10.4692 8.30272C11.0266 8.82532 11.7688 10.6363 10.7021 10.8825C9.46402 11.168 9.82612 10.1666 9.43247 9.60319C8.97122 8.94162 7.86841 9.12136 7.74521 9.9536C7.56491 11.168 8.99976 11.0713 9.79907 11.387C11.7237 12.1482 11.6336 14.6827 10.0996 15.8246C9.94782 15.9379 9.46703 16.1025 9.449 16.1327C9.25819 16.4424 9.76902 17.4438 8.58809 17.3667C7.59496 17.3018 8.02617 16.4997 7.79929 16.1131C7.72718 15.9907 7.20582 15.817 7.009 15.6615C6.26979 15.08 5.53208 13.0122 6.80917 12.8536C7.90747 12.7177 7.57994 13.9894 8.00213 14.3791C9.02981 15.3277 10.2889 13.5318 9.17255 12.9201C8.17641 12.3748 6.63489 12.6769 6.2157 11.1363C5.89868 9.96871 6.20067 8.75886 7.18479 8.02631C7.33804 7.91303 7.81732 7.74991 7.83686 7.71819C7.97659 7.48558 7.69713 6.31199 8.69176 6.37845C9.65784 6.44188 9.31227 7.49313 9.4505 7.71819L9.449 7.7197Z" fill="#384BFF"/>
</g>
<defs>
<clipPath id="clip0_115_191">
<rect width="54" height="58" fill="white"/>
</clipPath>
</defs>
</svg>
