<svg width="54" height="55" viewBox="0 0 54 55" fill="none" xmlns="http://www.w3.org/2000/svg">
<g clip-path="url(#clip0_115_231)">
<path d="M35.3285 18.7063L38.158 25.8208C38.5418 28.6049 35.3255 26.7587 33.8599 26.8478C32.7366 27.7011 31.4849 31.1263 29.9587 28.9462L27.6694 22.1211C27.33 21.6714 26.7942 21.7071 26.3587 22.0113L24.0931 28.9462C22.5949 31.1307 21.2768 27.7397 20.1949 26.8493C19.0761 26.7023 15.9838 28.3481 15.7831 26.3907C16.4665 23.7832 17.8038 21.3553 18.62 18.7731C18.248 18.5416 17.8185 18.5223 17.4495 18.2611C15.8879 17.154 17.1071 15.0393 17.2532 13.5419C16.5787 12.0623 14.5182 10.3438 16.0222 8.69946C16.437 8.24534 18.248 7.14567 18.4207 6.77021C18.713 6.138 18.6466 4.61093 18.8872 3.78877C19.5159 1.6384 21.9292 2.49617 23.6001 2.40564C24.6569 1.74525 25.7344 -0.0459898 27.0776 1.5415e-05C28.3558 0.0445366 29.4052 1.7868 30.4517 2.40416C31.51 2.48727 33.144 2.07322 34.1108 2.50804C35.6193 3.18773 35.2148 5.44496 35.6045 6.79395C36.5078 7.72148 38.4857 8.5184 38.5462 9.96386C38.5979 11.2223 37.2207 12.3977 36.7897 13.5523C36.8754 14.6935 37.6576 16.2903 37.2621 17.3648C36.9595 18.1869 36.1639 18.5995 35.3285 18.7049V18.7063ZM33.5425 3.9164C32.406 3.69379 30.8237 4.24734 29.7949 3.84516C29.0968 3.5721 27.4082 1.54787 26.9875 1.58794C25.7934 2.24092 24.8886 3.96389 23.4215 4.01731C23.082 4.02918 22.7853 3.90007 22.437 3.8971C22.0886 3.89414 20.5757 3.82587 20.437 4.01138C20.1492 4.39426 20.1993 6.71381 19.8111 7.50035C19.451 8.23347 17.1115 9.61363 17.0554 9.97128C17.2606 11.1021 18.7204 12.3057 18.8104 13.4499C18.8724 14.2305 18.065 16.2295 18.1861 16.737C18.3071 17.2446 20.9492 17.7195 21.5469 18.1483C22.3543 18.7286 22.7986 20.5436 23.4835 21.3257C23.8658 21.5156 25.5956 20.5733 26.1093 20.3996C26.375 20.3106 26.8045 20.1548 27.0702 20.1622C27.8156 20.183 30.0783 21.5008 30.4945 21.3657C31.2798 20.5139 31.5971 18.8354 32.5063 18.1498C33.3787 17.4924 34.9654 17.5443 35.8318 16.8127C35.9661 16.5367 35.1514 14.0316 35.2252 13.3193C35.3108 12.4838 37.0923 10.4521 36.9742 9.99057C36.8562 9.52903 34.7159 8.31658 34.31 7.65321C33.9012 6.98539 33.7551 4.05293 33.5425 3.9164ZM24.4798 22.8245C23.5794 23.0843 22.6126 22.8795 22.0635 22.0825C21.7388 21.6121 20.7779 19.1397 20.2244 19.2658L17.6178 25.7184L20.7587 25.0773L22.9285 27.6106L24.4783 22.826L24.4798 22.8245ZM33.8879 19.2614C33.3801 18.8933 32.1108 22.0098 31.73 22.3764C31.144 22.9433 30.3322 23.0397 29.572 22.8231L31.1233 27.6076L33.2193 25.11L36.434 25.7155L33.8864 19.2614H33.8879Z" fill="#384BFF"/>
<path d="M33.9026 11.4775C33.9026 15.3004 30.8206 18.4006 27.017 18.4006C23.2133 18.4006 20.1313 15.3019 20.1313 11.4775C20.1313 7.65318 23.2133 4.5545 27.017 4.5545C30.8206 4.5545 33.9026 7.65318 33.9026 11.4775ZM32.3498 11.4805C32.3498 8.51689 29.9601 6.11571 27.014 6.11571C24.0679 6.11571 21.6782 8.51837 21.6782 11.4805C21.6782 14.4427 24.0679 16.8453 27.014 16.8453C29.9601 16.8453 32.3498 14.4427 32.3498 11.4805Z" fill="#384BFF"/>
<path d="M25.5706 9.78579C26.1123 6.95275 27.8318 6.95572 28.4591 9.75017C29.3831 9.92528 30.9521 9.40884 30.9093 10.8587C30.8813 11.8056 29.8968 11.9465 29.361 12.5446C30.4739 15.1907 29.178 16.1657 27.0599 14.2706C26.6186 14.2038 25.3994 16.09 24.4281 14.9161C23.8348 14.1978 24.5477 13.3104 24.685 12.5387C22.2584 11.1837 22.592 9.42368 25.5691 9.7843L25.5706 9.78579ZM27.1352 10.5797C26.8031 10.5263 26.9241 10.884 26.623 11.1214C26.4104 11.2891 26.0769 11.3722 25.8082 11.3604C26.2141 11.81 26.5005 12.1706 26.2525 12.8058C26.7794 12.4496 27.2621 12.5342 27.8008 12.8058C27.5883 12.4244 27.6916 11.9881 27.9248 11.6497C28.037 11.4865 28.251 11.5325 28.2436 11.3604C27.7448 11.3648 27.1853 11.1437 27.1352 10.5797Z" fill="#384BFF"/>
<path d="M0.733602 51.5392C-0.298133 51.3567 0.0221625 49.8281 0.138768 49.049C0.611092 45.8598 2.6657 42.8457 5.40519 41.2103C5.72401 41.0204 7.48785 40.2457 7.54246 40.1314C1.89227 36.3397 4.81921 27.6788 11.6989 28.1611C17.0834 28.5381 19.5203 35.4953 15.6842 39.3018C15.5366 39.4488 14.4783 40.1329 14.6273 40.2976C17.1926 41.0233 19.2502 42.9852 20.6598 45.1935C21.4864 44.5524 22.4886 44.0626 23.4834 43.7465C20.2849 41.3899 19.4067 36.9793 22.0989 33.8406C26.5845 28.6108 35.169 33.2009 33.2591 40.0528C32.8207 41.6229 31.7314 42.6988 30.5698 43.7465C31.5808 44.076 32.527 44.582 33.3934 45.192C34.7366 42.9259 36.8738 41.01 39.4259 40.2961C39.4569 40.1403 39.4465 40.1537 39.355 40.0646C39.0067 39.7278 38.5476 39.52 38.1521 39.0733C33.3521 33.6625 39.4509 25.662 45.8524 28.7711C49.6901 30.635 50.6524 35.7995 47.8377 39.0124C47.445 39.4606 46.9786 39.6728 46.6318 40.026C46.5417 40.1181 46.4724 40.1225 46.5137 40.2961C50.4458 41.4433 53.4465 45.2974 53.9292 49.3696C53.9956 49.9365 54.2273 51.5377 53.3225 51.5377H37.7683L38.0768 54.2387C37.9867 54.6513 37.7521 55.0386 37.2768 54.9941L16.5712 54.9852C15.4347 54.77 16.2495 52.3035 16.2923 51.5377H0.733602V51.5392ZM16.0118 34.6598C16.0118 31.9113 13.7963 29.6838 11.0628 29.6838C8.32917 29.6838 6.11368 31.9113 6.11368 34.6598C6.11368 37.4082 8.32917 39.6357 11.0628 39.6357C13.7963 39.6357 16.0118 37.4082 16.0118 34.6598ZM47.9144 34.6583C47.9144 31.9083 45.6974 29.6778 42.9609 29.6778C40.2244 29.6778 38.0074 31.9069 38.0074 34.6583C38.0074 37.4097 40.2244 39.6387 42.9609 39.6387C45.6974 39.6387 47.9144 37.4097 47.9144 34.6583ZM31.9631 38.1502C31.9631 35.4003 29.7461 33.1713 27.0111 33.1713C24.276 33.1713 22.0591 35.4003 22.0591 38.1502C22.0591 40.9001 24.276 43.1292 27.0111 43.1292C29.7461 43.1292 31.9631 40.9001 31.9631 38.1502ZM1.6753 49.981H16.7867C17.4332 48.6231 18.2229 47.326 19.3388 46.305C19.4214 46.1907 19.3447 46.1121 19.3048 46.0097C19.1513 45.609 18.1225 44.303 17.7875 43.9662C12.0827 38.2497 2.14467 41.9405 1.6753 49.981ZM52.3764 49.981C52.1225 44.9471 47.5779 40.9521 42.5742 41.1821C39.8391 41.3083 37.0111 42.7656 35.3934 44.9813C35.1985 45.2484 34.589 46.0275 34.7144 46.3035C34.7823 46.4549 35.6473 47.3127 35.8628 47.605C36.4118 48.353 36.7882 49.19 37.265 49.9795H52.3764V49.981ZM36.4354 53.4314C35.9749 47.3468 29.9764 43.3325 24.1476 45.14C20.6185 46.2338 17.7653 49.6812 17.6163 53.4314H36.4354Z" fill="#384BFF"/>
</g>
<defs>
<clipPath id="clip0_115_231">
<rect width="54" height="55" fill="white"/>
</clipPath>
</defs>
</svg>
