<?xml version="1.0" encoding="UTF-8"?>
<svg id="Layer_1" xmlns="http://www.w3.org/2000/svg" version="1.1" viewBox="0 0 512 512">
  <!-- Generator: Adobe Illustrator 29.3.1, SVG Export Plug-In . SVG Version: 2.1.0 Build 151)  -->
  <defs>
    <style>
      .st0 {
        fill: #384bff;
      }
    </style>
  </defs>
  <path class="st0" d="M438.36,186.62c26.67-13.3,59.28,4.21,62.24,33.92,1.99,19.88,1.79,61.13.05,81.2-3.51,40.5-57.4,54.15-78.33,20.43-7.58-12.2-1.39-17.43,1.03-29.91C457.25,117.1,243.4,11.32,127.56,142.13c-80.78,91.21-41.72,236.76,72.82,274.64.93-7.26,2.96-12.49,10.65-14.39,28.2,1.91,60.09-2.73,87.84-.11,9.95.94,12.04,7.11,12.77,16.14.75,9.29,1.83,29.99-9.73,32.61-28.49-1.55-60.71,2.86-88.77.29-8.91-.82-7.17-5.12-11.3-7.89-3.37-2.25-13.43-4.12-18.09-6.08-47.96-20.17-84.91-54.97-106.73-102.36-27.7,16.05-62.88-.93-65.67-33.23-1.74-20.09-1.94-61.3.05-81.2,2.97-29.77,35.46-47.09,62.24-33.92C111.79,81.93,232.76,31,335.34,76.7c46.78,20.84,86.07,61.37,103.02,109.92ZM51.13,206.89c-8.2,1.31-14.08,7.83-15.18,15.96-2.18,16.03-1.64,58.83-.14,75.56,1.58,17.69,19.58,24.21,32.17,12.01-8.87-32.22-10.46-66.2-2.53-98.84-2.88-4.3-9.34-5.49-14.31-4.69ZM455.91,206.87c-2.25.22-9.08,2.23-9.38,4.72,7.75,32.17,6.96,66.31-2.61,97.96,9.15,12.63,29.35,7.52,31.97-8.12,3.8-22.71-2.34-53.98.32-77.62-.81-10.45-9.73-17.98-20.3-16.94Z"/>
  <path class="st0" d="M185.7,158.02c44.66,2.35,94.6-4.21,138.66-.29,27.92,2.49,51.44,26.02,53.93,53.93,1.99,22.31,1.99,65.5,0,87.8-.63,7.08-3.18,14.76-6.2,21.13,3.14,16.84,15.9,38.66,18.21,54.78,1.53,10.65-7.84,17.37-17.81,13.32-17.87-7.25-38.42-27.33-57.04-35.24-41.36-2.99-88.07,3.89-128.79-.19-27.45-2.75-50.49-26.41-52.93-53.81-1.77-19.86-2.39-78.2,1.64-96.17,5.34-23.84,26.23-42.13,50.35-45.27ZM356.07,348.94c-1.69-8.06-9.51-22.04-9.66-29.65-.09-4.7,6.67-14.46,7.42-22.06,1.97-19.81,1.97-63.57,0-83.37-1.67-16.85-15.03-29.8-31.69-31.69-42.4,2.72-89.38-3.66-131.23-.05-17.22,1.48-31.03,14.43-32.75,31.74-2.01,20.23-1.81,61.89-.05,82.31,1.48,17.22,14.43,31.03,31.74,32.75,41.34,4.1,89.08-3.13,131.1.11l35.12,19.91Z"/>
  <circle class="st0" cx="207.08" cy="255.55" r="12.16"/>
  <circle class="st0" cx="256" cy="255.55" r="12.16"/>
  <circle class="st0" cx="304.92" cy="255.55" r="12.16"/>
</svg>