<?xml version="1.0" encoding="UTF-8"?>
<svg id="Layer_1" xmlns="http://www.w3.org/2000/svg" version="1.1" viewBox="0 0 307.2 307.2">
  <!-- Generator: Adobe Illustrator 29.2.1, SVG Export Plug-In . SVG Version: 2.1.0 Build 116)  -->
  <defs>
    <style>
      .st0 {
        fill: #fff;
      }
    </style>
  </defs>
  <path class="st0" d="M.18,22.12C1.53,10.84,12,1.34,23.27.57c19.31,1.25,40.83-1.74,59.88.07,10.96,1.04,20.92,9.63,22.41,20.74s.87,21.94,2.73,33.21c2.51,15.2,12.16,31.93,3.67,45.93l-27.9,36.84c-.44.52-.55,1.01-.45,1.68.23,1.62,7.23,13.07,8.66,15.37,14.54,23.34,32.27,41.65,55.1,56.95,2.8,1.88,20.21,12.97,22.07,12.48l36.81-27.96c12.39-7.78,22.04-2,34.26.92,15.18,3.63,27.79,3.69,42.99,4.98,11.72.99,22.17,9.56,23.7,21.55v62.28c-2.15,11.38-10.18,19.41-21.59,21.56h-14.99l-30.2-3.08C115.79,285.63,16.43,183.32,2.06,58.26L.18,37.09c.41-4.75-.56-10.34,0-14.97Z"/>
</svg>