<?xml version="1.0" encoding="UTF-8"?>
<svg id="Layer_1" xmlns="http://www.w3.org/2000/svg" version="1.1" viewBox="0 0 384 384">
  <!-- Generator: Adobe Illustrator 29.3.1, SVG Export Plug-In . SVG Version: 2.1.0 Build 151)  -->
  <defs>
    <style>
      .st0 {
        fill: #fff;
      }

      .st1 {
        fill: #384bff;
      }
    </style>
  </defs>
  <g>
    <path class="st1" d="M278.26,12.16c24.38,1.61,53.04-2.78,76.92-.19,8.11.88,15.22,7.98,16.09,16.09,2.55,23.57-1.92,51.57,0,75.61-1.41,8.78-7.88,15.3-16.82,16.12-23.75,2.17-50.78-1.69-74.89-.03-8.04-.87-15.23-8.09-16.09-16.09-.96-8.88-.84-28.46-.03-37.47.76-8.5,10.53-7.96,11.85-2.05,1.34,12.06-1.24,26.24.14,38.03.47,4.04,2.53,5.28,6.34,5.63,22.82,2.08,48.76-1.64,71.91-.02,2.83-.08,5.15-2.13,5.55-4.93-1.52-23.36,2.18-49.59.08-72.6-.26-2.9-.85-4.78-3.74-5.99l-75.86-.18c-7.62,1.7-2.5,15.14-4.84,20.61-2.04,4.77-10.09,4.12-11.25-1.09-.7-3.13-.45-14.14.18-17.46,1.22-6.44,7.97-12.99,14.44-14.01Z"/>
    <path class="st1" d="M305.4,71.86c-16.23,2.88-16.25-14.86,0-11.97-1.68-9.98,3.59-21.61,14.18-23.62,3.21-.61,15.96-.89,18.56.22,4.77,2.04,4.12,10.09-1.09,11.25-9.74,2.18-22.01-5.44-19.68,12.14,16.25-2.89,16.24,14.85,0,11.97v19.84c0,5.22-11.98,5.22-11.98,0v-19.84Z"/>
  </g>
  <g>
    <path class="st1" d="M252.5,183.9c-3.08-3.37-1.62-8.56,2.61-10,4.54-1.55,27.6-6.3,31.97-6.29,7.32.02,9.02,9.21,2.04,11.84-4.65,1.76-25.46,5.91-30.52,6.19-2.16.12-4.54-.04-6.1-1.74Z"/>
    <path class="st1" d="M237.83,101.95c5.53-1.21,9.25,3.52,7.12,8.64l-19.25,25.65c-5.2,4.42-12.39-1.02-9.55-7.31,6.57-6.62,12.45-19.25,18.9-25.26.86-.8,1.58-1.47,2.79-1.73Z"/>
    <path class="st1" d="M261.78,131.89c6.24-1.4,10.07,5.04,6.21,9.97l-25.65,19.25c-6.3,2.83-11.72-4.34-7.31-9.55l26.75-19.68Z"/>
  </g>
  <g>
    <path class="st1" d="M41.92,203.6v119.77h155.7v-60.26c0-3.26,5.92-5.12,8.97-3.73.68.31,3,3.26,3,3.73v60.26h13.85c5.63,0,4.43,17.4,4.03,21.24-1.52,14.58-14.12,26.06-28.69,26.7-51.59-2.77-106.85,3.57-158.01,0-15.04-1.05-27.41-12.09-28.77-27.37-.35-3.88-1.42-20.57,4.1-20.57h13.85v-127.63c0-1.98,3.65-3.91,5.6-4.13,17.51-2.04,38.93,1.52,56.86.06,4.39.97,7.04,5.43,4.17,9.33-.45.61-2.93,2.6-3.38,2.6h-51.27ZM215.58,335.35H23.95c-.7,8.1.61,15.53,7.55,20.52,1.19.86,6,3.43,7.05,3.43h15.35c-2.88-16.24,14.86-16.23,11.98,0h107.79c-2.88-16.24,14.86-16.23,11.98,0h15.35c1.04,0,5.85-2.58,7.05-3.43,6.94-4.99,8.25-12.42,7.55-20.52Z"/>
    <g>
      <path class="st1" d="M221.36,204.87l-15.92-28.2c-1.73-5.55,4.24-9.7,9.07-6.8,1.42.85,4.56,6.69,5.69,8.53,9.16,14.93,16.96,30.75,26.25,45.61,1.3,2.61.39,5.08-1.64,6.95l-91.36,34.78c-.68.92,9.99,17.26,11.13,19.92,7.23,16.91-9.09,32.01-25.13,23.64-8.22-4.29-12.61-20.01-18.61-27.1-10.78,7.53-23.62,8.72-33.75-.63-4.71,1.72-7.23,4.69-12.58,5.14-24.02,2.04-27.77-29.48-5.76-36.06-1.8-9.89.43-19.18,8.32-25.74,41.78-22.17,74.85-56.82,112.05-85.56,2.75-1.6,4.82-2.52,7.72-.48,1.28.9,7.96,12,8.23,13.5,1.75,9.78-10.63,10.17-12.79,1.17l-75.18,60.53.04,2.21,14.99,25.45c2.59,6.57-4.93,11.69-9.81,6.82-3.2-3.19-11.08-18.49-13.93-23.49-.62-1.09-1.26-2.22-1.38-3.5-9.26,6.66-30.34,11.23-26.42,26.06.72,2.73,10.58,19.79,12.63,22.55,11.56,15.48,28.92-5.86,41.52-10.03l97.28-36.34-10.69-18.94M74.82,261.27c-4.37.81-10.31,4.42-8.63,9.74,2.18,6.9,9.64,2.64,13.9.7l-5.27-10.44ZM131.8,275.52c-.32,1,.16,1.84.53,2.72,1.04,2.44,10.24,18.23,11.72,19.72,5.03,5.1,12.3-.31,9.81-6.82-3.04-2.94-9.29-18.33-11.62-19.84s-7.83,3.92-10.44,4.22Z"/>
      <path class="st0" d="M74.82,261.27l5.27,10.44c-4.26,1.94-11.72,6.2-13.9-.7-1.68-5.31,4.26-8.93,8.63-9.74Z"/>
    </g>
  </g>
  <g>
    <path class="st1" d="M278.26,197.79c24.38,1.61,53.04-2.78,76.92-.19,8.11.88,15.22,7.98,16.09,16.09.96,8.88.84,28.46.03,37.47-.76,8.5-10.53,7.96-11.85,2.05-1.34-12.06,1.24-26.24-.14-38.03-.47-4.04-2.53-5.28-6.34-5.63-22.82-2.08-48.76,1.64-71.91.02-3.08.09-5.52,2.51-5.61,5.61,1.62,23.15-2.1,49.1-.02,71.91.26,2.9.85,4.78,3.74,5.99l75.86.18c9.79-2.19-2.17-25.5,11.32-23.78,6.71.86,5.5,14.63,4.94,19.82-.93,8.64-8.31,15.34-16.82,16.12-23.75,2.17-50.78-1.69-74.89-.03-8.25-1.07-15.03-7.88-16.09-16.09,2.21-23.81-2.97-53.13.07-76.29.96-7.29,7.61-13.76,14.71-15.23Z"/>
    <path class="st1" d="M341.38,251.51c0,13.25-10.74,24-24,24s-24-10.74-24-24,10.74-24,24-24,24,10.74,24,24ZM329.42,251.49c0-6.64-5.39-12.03-12.03-12.03s-12.03,5.39-12.03,12.03,5.39,12.03,12.03,12.03,12.03-5.39,12.03-12.03Z"/>
  </g>
  <g>
    <path class="st1" d="M95.85,65.84v107.86s-83.9,0-83.9,0v-107.86s83.9,0,83.9,0ZM83.84,77.85H23.95v83.84h59.88v-83.84Z"/>
    <path class="st1" d="M40.21,113.94c2.97-.66,24.41-.66,27.38,0,5.88,1.32,5.84,10.76-.63,11.77-3.74.58-23.35.64-26.74-.12-5.73-1.28-5.75-10.37,0-11.66Z"/>
    <path class="st1" d="M40.21,137.89c2.97-.66,24.41-.66,27.38,0,5.88,1.32,5.84,10.76-.63,11.77-3.74.58-23.35.64-26.74-.12-5.73-1.28-5.75-10.37,0-11.66Z"/>
    <path class="st1" d="M52.18,89.98c2.32-.52,13.82-.5,15.97.18,5.35,1.68,5,10.63-1.21,11.6-2.53.4-13.13.4-15.34-.29-5.2-1.63-4.93-10.25.57-11.48Z"/>
  </g>
  <g>
    <path class="st1" d="M215.57,59.88c0,29.76-24.13,53.89-53.89,53.89s-53.89-24.13-53.89-53.89S131.91,5.99,161.68,5.99s53.89,24.13,53.89,53.89ZM203.6,59.88c0-23.15-18.77-41.92-41.92-41.92s-41.92,18.77-41.92,41.92,18.77,41.92,41.92,41.92,41.92-18.77,41.92-41.92Z"/>
    <path class="st1" d="M148.01,36.08c1.88-.41,2.77-.1,4.49.44,5.11,1.62,32.06,15.11,36.4,18.24s3.6,7.76-.49,10.52c-10.27,6.93-25.68,11.39-36.43,18.21-4.29,1.3-7.75-.76-8.27-5.25-.9-7.7-.9-29,0-36.71.3-2.56,1.62-4.87,4.3-5.45ZM155.7,51.65v16.47c4.62-2.56,9.66-4.49,14.24-7.12.81-.47,1.82.08,1.48-1.48l-15.72-7.87Z"/>
  </g>
</svg>