<?xml version="1.0" encoding="UTF-8"?>
<svg id="Layer_1" xmlns="http://www.w3.org/2000/svg" version="1.1" viewBox="0 0 682.67 484.8">
  <!-- Generator: Adobe Illustrator 29.2.1, SVG Export Plug-In . SVG Version: 2.1.0 Build 116)  -->
  <path d="M328.92,18.89l140.72,2.21c2.72-.13,5.3,1.25,7.94,1.37,90.78,4.1,160.7-8.18,176.12,100.67,10.14,71.61,9.61,166.1,0,237.82-13.34,99.62-64.79,97.21-152.19,101.98-97.05,5.29-198.55,4.34-295.42.03-65.42-2.91-152.95,6.9-172.74-72.12-14.22-56.78-12.57-136.13-10.24-194.72,3.05-76.6-2.14-155.44,91.36-168.14,70.32-9.55,143.7-6.05,214.45-9.11ZM277.29,337.88l164.99-95.15-164.99-95.15v190.29Z"/>
</svg>